<svg xmlns="http://www.w3.org/2000/svg" viewBox="0 -38 512 511" width="45" height="45">
  <path fill="#57a4ff" d="M452.8 391.75a36.86 36.86 0 1 1-73.72 0 36.86 36.86 0 0 1 73.73 0zm0 0"/>
  <path fill="#b3d8f4" d="M120.82 8H7.5v45.96h78.05L166.2 354.9h300.16l15.44-15.43v-30.53H201.45zm0 0"/>
  <path fill="#57a4ff" d="M251.1 391.75a36.86 36.86 0 1 1-73.72 0 36.86 36.86 0 0 1 73.73 0zm0 0"/>
  <path fill="#b3d8f4" d="M227.8 391.75a13.56 13.56 0 1 1-27.12 0 13.56 13.56 0 0 1 27.12 0zm0 0M429.5 391.75a13.56 13.56 0 1 1-27.11 0 13.56 13.56 0 0 1 27.11 0zm0 0"/>
  <path fill="#57a4ff" d="M504.5 78.09a70.08 70.08 0 1 1-140.17 0 70.08 70.08 0 0 1 140.17 0zm0 0"/>
  <path fill="#006df0" d="M505.98 64.5H478V36.52h-27.17V64.5h-27.98v27.17h27.98v27.98H478V91.67h27.98zm0 0"/>
  <path fill="#fff" d="M475.98 64.5H448V36.52h-27.17V64.5h-27.98v27.17h27.98v27.98H448V91.67h27.98zm0 0"/>
  <path fill="#ffe477" d="M434.42 148.17a70.08 70.08 0 0 1-67.54-88.78h-232.3l56.9 212.64h252.5l38.17-142.65a69.82 69.82 0 0 1-47.73 18.79zm0 0"/>
  <path fill="#ffb655" d="M319.02 192.95h57.97v53.35h-57.97zm-94.88-29.87H290v-53.35h-80.15zm22.3 83.22H290v-53.35h-57.86zm217.98-98.13A70 70 0 0 1 406 116.8v46.28h65.35l4.23-15.81c-3.64.59-7.37.9-11.17.9zm-145.4 14.9h57.97v-53.34h-57.97zM406 246.3h43.08l14.27-53.35H406v53.35zm0 0"/>
  <path fill="#ffb655" d="M289.02 192.95h57.97v53.35h-57.97zm-94.88-29.87H260v-53.35h-80.15zm22.3 83.22H260v-53.35h-57.86zm217.98-98.13A70 70 0 0 1 376 116.8v46.28h65.35l4.23-15.81c-3.64.59-7.37.9-11.17.9zm-145.4 14.9h57.97v-53.34h-57.97zM376 246.3h43.08l14.27-53.35H376v53.35zm0 0"/>
  <path fill="#006df0" d="M409.08 391.75a36.86 36.86 0 0 1 21.87-33.68 36.86 36.86 0 1 0 0 67.36 36.87 36.87 0 0 1-21.87-33.68zm0 0"/>
  <path fill="#57a4ff" d="M7.5 8h30v45.96h-30zm0 0M85.55 53.96L166.2 354.9h30L115.55 53.96zm0 0"/>
  <path fill="#006df0" d="M207.38 391.75a36.86 36.86 0 0 1 21.86-33.68 36.86 36.86 0 1 0 0 67.36 36.87 36.87 0 0 1-21.86-33.68zm0 0M394.33 78.09A70.11 70.11 0 0 1 449.41 9.6a70.09 70.09 0 1 0 0 136.95 70.11 70.11 0 0 1-55.08-68.47zm0 0"/>
  <path fill="#e0e0e2" d="M422.85 64.5H448V36.52h-27.17V64.5h-27.98v27.17h27.98v27.98H448V91.67h-25.15zm0 0"/>
  <path fill="#ffb655" d="M134.57 59.4l56.9 212.63h30L164.58 59.4zm0 0M464.42 148.17c4.45 0 8.8-.42 13.03-1.21l4.7-17.58a69.92 69.92 0 0 1-32.74 17.17 70.36 70.36 0 0 0 15 1.62zm0 0"/>
  <g fill="#ff7956">
    <path d="M376.99 192.95H406v53.35h-29.02zm0 0M376.99 163.08H406v-20.92a70.33 70.33 0 0 1-29.02-23.92zm0 0M209.85 109.73h-30l14.3 53.35h30zm0 0M290 109.73h29.02v53.35H290zm0 0M202.14 192.95l14.3 53.35h30l-14.3-53.35zm0 0M290 192.95h29.02v53.35H290zm0 0"/>
  </g>
  <path d="M126.57.5H0v60.96h79.8l80.63 300.93h309.03l19.83-19.83v-41.13H207.2zM474.3 336.35l-11.04 11.04h-291.3L91.3 46.46H15V15.5h16.04v18.63h15V15.5h10.73v18.63h15V15.5h10.72v18.63h15V15.5h17.57l80.64 300.93h278.59zm0 0M214.24 412.81a21.08 21.08 0 0 0 21.06-21.06c0-11.6-9.44-21.05-21.06-21.05a21.08 21.08 0 0 0-21.06 21.05 21.08 21.08 0 0 0 21.06 21.06zm0-27.11a6.06 6.06 0 1 1 0 12.13 6.06 6.06 0 0 1 0-12.13zm0 0M415.95 412.81A21.08 21.08 0 0 0 437 391.75c0-11.6-9.44-21.05-21.05-21.05a21.08 21.08 0 0 0-21.06 21.05 21.08 21.08 0 0 0 21.06 21.06zm0-27.11a6.06 6.06 0 1 1-.01 12.13 6.06 6.06 0 0 1 0-12.13zm0 0"/>
  <path d="M154.59 51.9h191.7v15h-191.7zm0 0M481.5 160.8l-14.48-3.88-28.8 107.6H211.57v15h238.17zm0 0M240.36 378.33a29.4 29.4 0 0 1-26.12 42.79 29.4 29.4 0 0 1-26.12-42.8l-13.33-6.86a44.41 44.41 0 0 0 39.45 64.66 44.41 44.41 0 0 0 39.46-64.66zm0 0M442.07 378.33a29.4 29.4 0 0 1-26.12 42.79 29.4 29.4 0 0 1-26.13-42.8l-13.33-6.86a44.4 44.4 0 0 0 39.45 64.66 44.41 44.41 0 0 0 39.46-64.66zm0 0M434.42 155.67c42.78 0 77.58-34.8 77.58-77.58C512 35.3 477.2.5 434.42.5s-77.58 34.8-77.58 77.59c0 42.77 34.8 77.58 77.58 77.58zm0-140.17A62.65 62.65 0 0 1 497 78.08a62.65 62.65 0 0 1-62.58 62.58 62.65 62.65 0 0 1-62.58-62.58 62.65 62.65 0 0 1 62.58-62.58zm0 0"/>
  <path d="M413.33 127.15h42.17V99.17h27.98V57H455.5V29.02h-42.17V57h-27.98v42.17h27.98zm-12.98-42.98V72h27.98V44.02h12.17V72h27.98v12.17H440.5v27.98h-12.17V84.17zm0 0M267.5 102.23h-97.42l18.31 68.35h79.1zm-15 53.35h-52.6l-10.27-38.35h62.87zm0 0M368.5 146.6v23.98h36.05v-15h-21.04v-8.97zm0 0M267.5 253.8v-68.35h-75.13l18.31 68.35zm-15-53.35v38.35h-30.3l-10.28-38.35zm0 0M281.52 185.45v68.35h72.97v-68.35zm57.97 53.35h-42.97v-38.35h42.97zm0 0M368.5 253.8h56.34l18.3-68.35H368.5zm15-53.35h40.09l-10.26 38.35H383.5zm0 0M281.52 170.58h72.97v-68.35h-72.97zm15-53.35h42.97v38.35h-42.97zm0 0"/>
  <path fill="#fff" d="M456.57 339.22H351.59v-15h104.98zm-114.98 0h-15v-15h15zm-25 0h-15v-15h15zm0 0"/>
</svg>
