<svg xmlns="http://www.w3.org/2000/svg" viewBox="-44 0 512 512" width="45" height="45">
  <path fill="#48ffe0" d="M405.1 286.05h-20.86V234.8h20.87a10.7 10.7 0 0 1 10.7 10.7v29.86c0 5.9-4.79 10.7-10.7 10.7zm0 0"/>
  <path fill="#618baa" d="M330.38 373.97V175.15l57.25 37.68a10.7 10.7 0 0 1 4.82 8.94v90.13a62.07 62.07 0 0 1-62.07 62.07zm0 0"/>
  <path fill="#4e7693" d="M392.45 221.77v90.13a62.07 62.07 0 0 1-62.07 62.07v-7.75a62.09 62.09 0 0 0 47.4-60.32v-99.55l9.84 6.48a10.7 10.7 0 0 1 4.83 8.94zm0 0"/>
  <path fill="#bddff4" d="M353.54 160.48l-9.7 227.8a89.31 89.31 0 0 1-89.24 85.5h-62.7V67.38h72.42c50.81 0 91.38 42.34 89.22 93.1zm0 0"/>
  <path fill="#9cc6db" d="M353.54 160.48l-9.7 227.8a89.31 89.31 0 0 1-89.24 85.5h-21.05a89.31 89.31 0 0 0 89.23-85.5l9.7-227.8c2.17-50.76-38.4-93.1-89.21-93.1h21.05c50.81 0 91.38 42.34 89.22 93.1zm0 0"/>
  <path fill="#9cc6db" d="M352.7 180.29l-8.87 208a89.34 89.34 0 0 1-89.23 85.49h-62.7V263.24h22.13a40.88 40.88 0 0 0 34.85-19.5l26.93-43.95a40.88 40.88 0 0 1 34.85-19.5h42.04zm0 0"/>
  <path fill="#2f5e75" d="M270.21 381.98v90.43a90.14 90.14 0 0 1-15.6 1.36h-62.7v-113.2h56.9a21.4 21.4 0 0 1 21.4 21.4zm0 0"/>
  <path fill="#84a1c0" d="M352.7 180.29l-8.87 208a89.31 89.31 0 0 1-89.23 85.49h-21.05a89.31 89.31 0 0 0 89.23-85.5l8.86-208zm0 0"/>
  <path fill="#618baa" d="M239.06 63.1v79.63a47.79 47.79 0 0 1-47.16 47.8V51.17h35.23c6.58 0 11.93 5.34 11.93 11.93zm0 0"/>
  <path fill="#43a3f9" d="M191.9 67.38h-38.05c-76.23 0-138.02 61.8-138.02 138.01v28.95A77.37 77.37 0 0 0 93.2 311.7h98.7zm0 0"/>
  <path fill="#1685fb" d="M172.45 67.38h19.46V311.7h-19.46zm0 0"/>
  <path fill="#1685fb" d="M191.9 269.66H93.2a77.38 77.38 0 0 1-77.17-71.75c-.14 2.48-.2 4.98-.2 7.5v28.93A77.36 77.36 0 0 0 93.2 311.7h98.7zm0 0"/>
  <path fill="#fecbaa" d="M89.32 319.67a40.91 40.91 0 1 1-81.82 0 40.91 40.91 0 0 1 81.82 0zm0 0"/>
  <path fill="#fedfc5" d="M191.9 167.68v306.1h-31.78a89.31 89.31 0 0 1-89.16-84.26L60.14 198.57a29.24 29.24 0 0 1 29.2-30.89zm0 0"/>
  <path fill="#fecbaa" d="M172.45 167.68h19.46v306.1h-19.46zm0 0"/>
  <path fill="#43a3f9" d="M172.45 145.24v108.2H50.52a7.22 7.22 0 0 1-7.22-7.21v-50.5a50.5 50.5 0 0 1 50.5-50.5zm0 0"/>
  <path fill="#1685fb" d="M191.9 145.24v105.19a63.03 63.03 0 0 1-19.28 3.02h-.17V145.24zm0 0"/>
  <path fill="#fd8289" d="M191.9 299.95c-.68-.12-7.8-.18-8.52-.18-5.85 0-10.81 4.3-11.65 10.08l-7.41 51.12a11.78 11.78 0 0 0 11.66 13.47h15.92zm0 0"/>
  <path fill="#48ffe0" d="M295.42 306.18a25.2 25.2 0 1 1-50.4.01 25.2 25.2 0 0 1 50.4 0zm0 0"/>
  <path fill="#00e5b9" d="M295.42 306.19a25.2 25.2 0 0 1-33.9 23.66 25.2 25.2 0 0 0 0-47.32 25.2 25.2 0 0 1 33.9 23.66zm0 0"/>
  <path fill="#48ffe0" d="M398.44 25.3a17.8 17.8 0 1 1-35.59 0 17.8 17.8 0 0 1 35.6 0zm0 0M127.84 197.9a25.2 25.2 0 1 1-50.4 0 25.2 25.2 0 0 1 50.4 0zm0 0"/>
  <path fill="#00e5b9" d="M127.84 197.91a25.2 25.2 0 0 1-33.9 23.66 25.2 25.2 0 0 0 0-47.32 25.2 25.2 0 0 1 33.9 23.66zm0 0"/>
  <path d="M405.1 227.3h-5.15v-5.53c0-6.15-3.07-11.83-8.2-15.2l-3.6-2.38V49.45a25.34 25.34 0 0 0 17.8-24.16A25.32 25.32 0 0 0 380.64 0a25.32 25.32 0 0 0-25.3 25.3c0 11.33 7.5 20.95 17.8 24.15v144.87l-13.18-8.67 1.06-24.84c.94-22-5.37-43.04-18.26-60.84a7.5 7.5 0 1 0-12.15 8.8 80.94 80.94 0 0 1 15.43 51.4l-.54 12.61h-34.85c-16.7 0-32.5 8.85-41.24 23.1l-26.94 43.93a33.59 33.59 0 0 1-28.45 15.93H199.4v-5.34-52.99c26.6-3.97 47.16-27.1 47.16-54.68v-31.82h31.91a7.5 7.5 0 0 0 0-15h-31.91V74.88h17.76a81.57 81.57 0 0 1 43.15 12.3 7.5 7.5 0 0 0 7.93-12.73 96.55 96.55 0 0 0-51.08-14.57h-18.05a19.44 19.44 0 0 0-19.14-16.2H199.4V7.5a7.5 7.5 0 0 0-15 0v52.38h-30.56c-80.23 0-145.51 65.28-145.51 145.51v28.95c0 16.18 4.5 31.68 13.04 45.2A48.4 48.4 0 0 0 0 319.67a48.46 48.46 0 0 0 48.4 48.4c4.66 0 9.28-.69 13.72-2l1.35 23.87a96.86 96.86 0 0 0 96.65 91.34h24.28v23.22a7.5 7.5 0 0 0 15 0v-23.22h55.2a97.07 97.07 0 0 0 60.77-21.46 7.5 7.5 0 0 0-9.42-11.67 81.87 81.87 0 0 1-28.24 14.76v-80.93a28.93 28.93 0 0 0-28.9-28.9h-49.4v-82.34h14.62c16.7 0 32.5-8.84 41.24-23.08l26.94-43.95a33.6 33.6 0 0 1 28.45-15.92h34.2l-8.52 200.17a81 81 0 0 1-10.03 35.86 7.5 7.5 0 0 0 13.15 7.23 95.87 95.87 0 0 0 11.86-42.45l.45-10.5a69.46 69.46 0 0 0 48.06-62.43h6.35a7.5 7.5 0 1 0 0-15h-6.23v-7.12h5.16c10.03 0 18.2-8.16 18.2-18.2V245.5c0-10.04-8.16-18.2-18.2-18.2zM380.66 15a10.3 10.3 0 0 1 0 20.59 10.3 10.3 0 0 1 0-20.59zM184.4 366.93h-8.42c-1.7 0-2.76-.92-3.24-1.47a4.24 4.24 0 0 1-1-3.41l7.41-51.12a4.3 4.3 0 0 1 4.23-3.66h1.02zm42.73-308.25a4.43 4.43 0 0 1 4.43 4.43v79.62c0 19.34-13.86 35.66-32.16 39.46V58.68zM48.4 353.08A33.45 33.45 0 0 1 15 319.68a33.45 33.45 0 0 1 42.67-32.12l3.56 62.95a33.57 33.57 0 0 1-12.82 2.57zm111.71 113.2a81.86 81.86 0 0 1-81.68-77.19L71.2 260.95h18.13a7.5 7.5 0 1 0 0-15H50.8v-50.22a7.5 7.5 0 0 0-15 0v50.5c0 8.12 6.6 14.72 14.72 14.72h5.64L56.8 272a48.19 48.19 0 0 0-21.7 1.14 69.29 69.29 0 0 1-11.76-38.8v-28.95c0-71.96 58.55-130.51 130.51-130.51h30.56v169.8c-3.86.84-7.8 1.27-11.77 1.27h-47.97a7.5 7.5 0 1 0 0 15h47.97c3.96 0 7.89-.34 11.77-1v32.32h-1.02c-9.5 0-17.71 7.09-19.08 16.5l-7.4 51.12a19.26 19.26 0 0 0 19.08 22.04h8.42v25.46H157.3a7.5 7.5 0 1 0 0 15h27.11v43.89zm88.7-98.2c7.66 0 13.9 6.23 13.9 13.9v83.88c-2.7.27-5.4.42-8.11.42h-55.2v-98.2zM383.5 219.08c.9.6 1.45 1.6 1.45 2.68v31.16H357.1l2.12-49.81zm1.45 92.8a54.5 54.5 0 0 1-32.49 49.93l3.04-71.26h13.77a7.5 7.5 0 1 0 0-15h-13.13l.32-7.63h28.49zm23.36-36.54a3.2 3.2 0 0 1-3.2 3.2h-5.16V242.3h5.16a3.2 3.2 0 0 1 3.2 3.2zm0 0"/>
  <path d="M130.09 302.59h-.2a7.5 7.5 0 0 0 .03 15h.21a7.5 7.5 0 1 0-.04-15zm0 0M237.51 306.18a32.74 32.74 0 0 0 32.7 32.7 32.74 32.74 0 0 0 32.7-32.7 32.74 32.74 0 0 0-32.7-32.7 32.74 32.74 0 0 0-32.7 32.7zm50.4 0c0 9.77-7.93 17.7-17.7 17.7-9.76 0-17.7-7.93-17.7-17.7 0-9.76 7.94-17.7 17.7-17.7 9.77 0 17.7 7.94 17.7 17.7zm0 0M220.71 396.9h16.05a7.5 7.5 0 1 0 0-15h-16.05a7.5 7.5 0 0 0 0 15zm0 0M220.71 416.88h16.05a7.5 7.5 0 1 0 0-15h-16.05a7.5 7.5 0 0 0 0 15zm0 0M220.71 436.86h16.05a7.5 7.5 0 1 0 0-15h-16.05a7.5 7.5 0 0 0 0 15zm0 0M143 275.63l-31.32-4.3a7.5 7.5 0 0 0-2.04 14.86l31.33 4.3a7.5 7.5 0 0 0 2.04-14.86zm0 0M135.34 197.9c0-18.03-14.67-32.7-32.7-32.7s-32.7 14.68-32.7 32.7a32.74 32.74 0 0 0 32.7 32.7 32.74 32.74 0 0 0 32.7-32.7zm-32.7 17.7c-9.76 0-17.7-7.93-17.7-17.7 0-9.76 7.94-17.7 17.7-17.7s17.7 7.94 17.7 17.7c0 9.77-7.94 17.7-17.7 17.7zm0 0M33.75 88a7.47 7.47 0 0 0 10.6-.02 7.5 7.5 0 0 0-.01-10.6l-6.73-6.7a7.5 7.5 0 0 0-10.58 10.63zm0 0M14.85 106.5l9.17 2.43a7.5 7.5 0 0 0 3.84-14.5l-9.16-2.44a7.5 7.5 0 0 0-3.85 14.5zm0 0M50.73 71.46a7.5 7.5 0 0 0 14.48-3.92l-2.48-9.16a7.5 7.5 0 1 0-14.48 3.92zm0 0"/>
</svg>
