<svg xmlns="http://www.w3.org/2000/svg" viewBox="-67 0 512 512" width="45" height="45">
  <path fill="#d2d2d7" d="M369.8 23.59v432.87H7.6V23.6c0-8.88 7.18-16.06 16.05-16.06h330.1c8.86 0 16.05 7.18 16.05 16.06zm0 0"/>
  <path fill="#ebebf0" d="M369.8 23.59v432.87H37.7V23.6c0-8.88 7.19-16.06 16.06-16.06h299.98c8.87 0 16.06 7.18 16.06 16.06zm0 0"/>
  <path fill="#a0a0a5" d="M369.8 408.45v81.63c0 7.95-6.44 14.4-14.4 14.4H55.6a47.99 47.99 0 0 1-33.95-81.97 47.83 47.83 0 0 1 33.96-14.06zm0 0"/>
  <path fill="#b9b9be" d="M369.8 408.45v81.63c0 7.95-6.44 14.4-14.4 14.4H99.1a47.99 47.99 0 0 1-33.95-81.97 47.82 47.82 0 0 1 33.95-14.06zm0 0"/>
  <path fill="#4172cc" d="M259.1 321.7h-18.05a6.24 6.24 0 0 1-6.24-6.23V155.35a7.48 7.48 0 0 0-7.47-7.47H125.22a7.48 7.48 0 0 0-7.47 7.47v20.53a7.47 7.47 0 0 0 7.47 7.47h11.12c3.45 0 6.24 2.8 6.24 6.24v125.88c0 3.44-2.8 6.23-6.24 6.23H118.3a7.47 7.47 0 0 0-7.48 7.48v20.52a7.47 7.47 0 0 0 7.48 7.48h140.8a7.47 7.47 0 0 0 7.47-7.48v-20.52a7.47 7.47 0 0 0-7.48-7.48zm0 0M207.7 92.75a31.27 31.27 0 1 1-62.56 0 31.27 31.27 0 0 1 62.55 0zm0 0"/>
  <path d="M353.74 0H23.65A23.6 23.6 0 0 0 .07 23.59v62.47a7.53 7.53 0 1 0 15.05 0V23.59c0-4.71 3.83-8.54 8.53-8.54h330.1c4.7 0 8.52 3.83 8.52 8.54v259.47a7.53 7.53 0 0 0 15.05 0V23.6A23.6 23.6 0 0 0 353.74 0zm0 0M369.8 305.64a7.53 7.53 0 0 0-7.53 7.53v87.75H55.61a55.4 55.4 0 0 0-40.49 17.56V116.16a7.53 7.53 0 0 0-15.05 0c0 371.32-.47 343.59 1.09 351.25A55.6 55.6 0 0 0 55.61 512H369.8a7.52 7.52 0 0 0 7.52-7.53v-191.3a7.53 7.53 0 0 0-7.52-7.53zm-7.53 191.3H55.61a40.36 40.36 0 0 1-31-14.48h337.66zm0-29.53H16.63a40.5 40.5 0 0 1-.04-21.79h345.68zm0-36.84H24.51a40.36 40.36 0 0 1 31.1-14.6h306.66zm0 0"/>
  <path d="M150.1 315.47V264.4a7.53 7.53 0 0 0-15.05 0v49.77H118.3c-8.27 0-15 6.73-15 15v20.52c0 8.27 6.73 15 15 15h140.8c8.26 0 15-6.73 15-15v-20.52c0-8.28-6.74-15-15-15h-16.76V155.36c0-8.28-6.73-15-15-15H125.22c-8.27 0-15 6.72-15 15v20.52c0 8.27 6.73 15 15 15h9.83v43.42a7.53 7.53 0 0 0 15.06 0V189.6c0-7.59-6.18-13.76-13.77-13.76l-11.07.05-.05-20.47 102.07-.05v160.1c0 7.6 6.17 13.77 13.76 13.77l17.99-.05.05 20.47-140.74.05-.05-20.47h18.04c7.59 0 13.77-6.17 13.77-13.76zm0 0M215.22 92.75a38.82 38.82 0 0 0-38.8-38.8c-21.4 0-38.8 17.4-38.8 38.8s17.4 38.8 38.8 38.8 38.8-17.4 38.8-38.8zm-62.55 0a23.75 23.75 0 1 1 47.5 0 23.75 23.75 0 0 1-47.5 0zm0 0"/>
</svg>
