<svg xmlns="http://www.w3.org/2000/svg" viewBox="0 0 512 512" width="45" height="45">
  <g fill="#847e74">
    <path d="M328.33 479.77h26.8v24.08h-26.8z"/>
    <path d="M292.45 479.77h35.89v24.08h-35.89zM181.16 480.82h26.25v23.02h-26.25zM152.1 480.82h29.06v23.02H152.1z"/>
  </g>
  <g fill="#d3d1cd">
    <path d="M207.41 421.97v58.85h-26.25v-64.88a154.07 154.07 0 0 0 26.25 6.03zM355.13 383.43v96.34h-26.8v-78.33a134.18 134.18 0 0 0 26.58-18.26l.22.25z"/>
  </g>
  <path fill="#f9d780" d="M485.25 8.15l-84.67 90.2-4.09 4.35c-7.84 8.35-20.49 10.01-29.92 4.01a23.34 23.34 0 0 1-2.77-2.08c-13-11.06-10.26-31.91 5.1-39.44L485.24 8.16z"/>
  <path fill="#edeae4" d="M398.3 262.65c-6.6.24-13.4-.38-20.32-1.97l-.23 1.01c14.42 32.78 19.12 84.04-22.84 121.49a134.26 134.26 0 0 1-26.58 18.26v78.33h-35.88v-61.73s-41.76 10.12-85.04 3.93c-8.8-1.27-17.66-3.2-26.25-6.03v64.88H152.1v-54.95s-9.93-1.93-22.96-6.98a86.7 86.7 0 0 1-38.72-21.29 86.61 86.61 0 0 1-26.94-68.1c2.42-42.7 40.43-80.03 83.16-81.76a86.3 86.3 0 0 1 47.22 11.69 86.79 86.79 0 0 1 12.54 8.86c8.69 7.36 21.13 8.92 31.17 3.53.46-.25.92-.5 1.37-.78l.97-.6c44.2-27.14 5.58-70.15 5.58-132.96s53.9-69.72 53.9-69.72c0-8.25 1.02-15.14 2.7-20.9 8.18-27.91 32.05-29.34 32.05-29.34v47.45h.05c1.41-48.3 34.7-50.44 34.7-50.44V65.2c-15.35 7.52-18.09 28.37-5.09 39.44.18.15.34.3.51.43 9.57 7.87 23.7 6.67 32.18-2.37l4.1-4.36v.01a971.24 971.24 0 0 0 27.77 39.2 757.48 757.48 0 0 0 16.43 21.17c40.66 50.38 4.01 102.17-46.5 103.93z"/>
  <path fill="#d3d1cd" d="M293.9 107.3s-46.83 17.82-46.83 52.81c0 22.35 8.03 38.4 12.14 54.17 6.55 25.16 91.98 48.48 97.28 38.32 0 0-74.6-24.97-83.2-110.76"/>
  <g fill="#fff">
    <path d="M356.49 252.6c96.66-18.83 72.54-113.54 71.87-115.06a757.48 757.48 0 0 0 16.43 21.18c40.66 50.38 2.29 132.2-88.3 93.88z"/>
    <path d="M398.3 262.64c-6.6.25-13.4-.37-20.32-1.96l-.23 1.01c14.42 32.78 19.12 84.04-22.84 121.49a134.26 134.26 0 0 1-26.58 18.26c72.66-100.69 14.43-156.26 13.3-157.34l56.67 18.54z"/>
  </g>
  <path fill="#fcacdf" d="M302.1 46.86c-1.69 5.76-2.7 12.65-2.7 20.9 0 0-53.9 6.9-53.9 69.72s38.62 105.82-5.6 132.95c-.31.2-.63.42-.96.61-.45.27-.9.53-1.37.78-10.04 5.39-22.49 3.83-31.17-3.53a86.84 86.84 0 0 0-12.54-8.86c37.72-23.02 3.77-57.63 13.63-140.8 10.06-84.79 94.6-71.77 94.6-71.77z"/>
  <path fill="#f9e9c7" d="M485.25 8.15l-84.67 90.2-4.09 4.35c-7.84 8.35-20.49 10.01-29.92 4.01L485.25 8.16z"/>
  <path fill="#fcacdf" d="M88.9 399.02c-15.7 31.85-59.68 33.15-59.68 33.15s28.5-24.03 7.26-80.6C15.24 295.01 26.42 193.2 93.5 193.2c43.46 0 56.88 32.03 60.93 54.57a88.57 88.57 0 0 0-7.78-.03c-42.73 1.73-80.74 39.06-83.16 81.77a86.61 86.61 0 0 0 26.94 68.1L88.9 399z"/>
  <path fill="#fff" d="M312.43 408.18l15.9-5.43v77.02h-15.9z"/>
  <g fill="#d3d1cd">
    <path d="M192.56 419.15c66.6-9.88 99.88-40.89 99.88-40.89v39.78s-57.77 19.69-99.88 1.1zM101.53 339.7c0 59.78 50.57 86.17 50.57 86.17s-9.93-1.93-22.96-6.98a86.7 86.7 0 0 1-38.72-21.29 86.61 86.61 0 0 1-26.94-68.1c2.42-42.7 40.43-80.03 83.16-81.75 2.62-.11 5.22-.1 7.78.02 0 0-52.9 28.87-52.9 91.92z"/>
  </g>
  <path fill="#db91c5" d="M63.48 329.5a86.61 86.61 0 0 0 26.94 68.1l-1.52 1.42c-15.7 31.85-59.68 33.15-59.68 33.15s28.5-24.03 7.26-80.6a136.16 136.16 0 0 1-4.38-14.03c10.37-10.38 16.72-24.5 20.48-36.03 3.75-11.53 4.92-20.47 4.92-20.47.55-68.2 58.68-26.4 58.68-26.4l-.53.76c-28.68 13.28-50.36 42.2-52.17 74.1z"/>
  <path fill="#e58376" d="M331.23 185.14h-16.67a8.15 8.15 0 0 1 0-16.3h16.67a8.15 8.15 0 1 1 0 16.3z"/>
  <path d="M491.8 3.3A8.15 8.15 0 0 0 481.66.84L377.04 52.12v-37.6a8.16 8.16 0 0 0-8.67-8.13c-1.11.07-11.1.92-21.29 8.8a45.93 45.93 0 0 0-4.8 4.28v-1.96a8.16 8.16 0 0 0-8.63-8.13c-1.13.06-25.88 1.89-37.1 28.77-12.92-.74-41.7-.01-65.04 17.74-18.08 13.74-28.88 34.52-32.12 61.79-4.24 35.78-.53 63.4 2.18 83.57 3.72 27.64 4.48 39.14-8.16 48.65a95.2 95.2 0 0 0-32.26-9.75c-8.48-35.6-32.3-55.1-67.66-55.1a8.15 8.15 0 0 0 0 16.3c16.81 0 29.95 5.38 39.06 16 5.82 6.77 9.4 14.97 11.6 22.39a89.16 89.16 0 0 0-25.92 5.7c-17.03-14.66-36.83-16.11-54.95-3.82a8.15 8.15 0 1 0 9.15 13.5c9.93-6.74 19.77-7.24 29.38-1.55a101.92 101.92 0 0 0-17.59 13.87c-17.34 17.05-27.6 38.92-28.89 61.6a94.98 94.98 0 0 0 24.55 69.44c-7.9 13-22.03 19.4-33.41 22.55 6.37-14.38 10.51-38.04-2.36-72.33C27.14 303.51 33.1 232.92 66.2 209.64a8.15 8.15 0 0 0-9.38-13.34c-19.32 13.6-32.35 39.42-36.68 72.74-3.75 28.93-.5 60.86 8.72 85.4 18.72 49.87-3.98 70.7-4.88 71.5a8.15 8.15 0 0 0 5.5 14.38c1.85-.05 42.64-1.62 62.58-30.6 13.41 13.42 47.61 21.44 51.9 22.58v71.55c0 4.5 3.65 8.15 8.15 8.15h55.31c4.5 0 8.16-3.65 8.16-8.15v-72.71c7.42.7 14.7 1 21.66 1 19.73 0 36.82-2.34 47.06-4.14v75.85c0 4.5 3.65 8.15 8.16 8.15h62.68c4.5 0 8.15-3.65 8.15-8.15v-117.3c14.04-13.4 23.73-29.17 28.82-46.96a8.15 8.15 0 0 0-15.68-4.48c-4.58 15.99-13.64 30.11-26.94 41.99a126.85 126.85 0 0 1-24.98 17.14 8.15 8.15 0 0 0-4.32 7.2v70.17H300.6v-93.35a8.15 8.15 0 0 0-16.3 0v33.14c-12.9 2.42-44.03 7.03-75.73 2.5a146.13 146.13 0 0 1-24.86-5.7 8.15 8.15 0 0 0-10.7 7.64v56.83h-12.76v-46.8c0-3.9-2.76-7.26-6.59-8-.1-.02-27.9-8.38-30.5-9.34a78.82 78.82 0 0 1-51.54-78.56c2.2-38.6 36.7-72.52 75.36-74.08a78.64 78.64 0 0 1 54.15 18.62c11.29 9.57 27.48 11.37 40.28 4.5.82-.43 2.76-1.63 2.76-1.63 33.58-20.6 26.22-50.54 18.42-82.22-2.8-11.42-5.71-23.23-7.44-36.13a8.15 8.15 0 1 0-16.16 2.17c1.84 13.77 5 26.57 7.77 37.85 8.31 33.8 11.32 50.67-11.15 64.46-.25.15-1.46.89-1.9 1.13-6.96 3.73-15.82 2.7-22.03-2.56a94.36 94.36 0 0 0-3.87-3.1c15.89-15.4 13.21-35.45 9.92-59.9-2.74-20.38-6.14-45.75-2.14-79.48 2.69-22.65 11.33-39.7 25.69-50.65 17.23-13.16 39.05-14.84 50.92-14.62a86.6 86.6 0 0 0-.75 6.85 76.92 76.92 0 0 0-23.73 11.24c-13.86 9.85-30.38 29.13-30.38 65.06a8.15 8.15 0 0 0 16.3 0c0-54.6 44.91-61.37 46.79-61.63a8.15 8.15 0 0 0 7.12-8.09c0-6.95.8-13.22 2.37-18.61 3.51-11.97 10.44-17.87 16.06-20.76v36.58l.03.6-.03 2.62a8.15 8.15 0 0 0 16.31 0c0-.99 0-1.94.05-2.98.5-17.05 5.24-29.37 14.08-36.62a28.47 28.47 0 0 1 4.32-2.92v34.95a31.95 31.95 0 0 0-13.13 22.06 31.69 31.69 0 0 0 11.52 28.69 31.14 31.14 0 0 0 19.86 7.08c7.26 0 14.53-2.49 20.42-7.34 1.23 1.8 2.46 3.58 3.7 5.35A26.1 26.1 0 0 0 384.93 143a8.15 8.15 0 1 0 16.28-1.06 9.76 9.76 0 0 1 13.06-9.77 786.42 786.42 0 0 0 24.18 31.67c6.04 7.49 10.35 15.2 12.9 22.87a8.22 8.22 0 0 0-5.4 10.14 8.23 8.23 0 0 0 7.79 5.8c.12 0 .23-.03.35-.03.1 8.86-2.29 17.45-7.21 25.34-13.13 21-40.08 30.96-67.08 24.78a79.95 79.95 0 0 1-19.5-7.34c-53.9-28.56-76.62-62.15-79.9-84.06-2.52-16.73 3.97-32.97 19.27-48.27a8.15 8.15 0 1 0-11.53-11.53c-19.16 19.16-27.2 40.1-23.87 62.22 7.44 49.6 69.55 86.06 88.4 96.05a97.52 97.52 0 0 0 18.63 7.55 113.06 113.06 0 0 1 8.54 39.22 8.15 8.15 0 0 0 16.3-.5 127.88 127.88 0 0 0-6.27-35.43c1.94.13 3.88.2 5.8.2 26.77 0 51.49-12.57 65.04-34.25 15.69-25.11 12.1-56.14-9.57-83A852.32 852.32 0 0 1 411 99.18l80.19-85.43a8.16 8.16 0 0 0 .61-10.43zM336.48 495.7v-7.78h10.5v7.77h-10.5zm0-89.44c3.66-2.1 7.15-4.29 10.5-6.58v71.93h-10.5v-65.35zm-16.3 81.66v7.77H300.6v-7.77h19.58zM189.3 495.7v-6.71h9.95v6.71h-9.95zm0-68.94c3.24.8 6.55 1.52 9.95 2.14v43.78h-9.95v-45.92zm-16.3 62.23v6.71h-12.76v-6.71H173zM391.95 95.6c-4.4-17.3-2.4-27.88-1.14-32.08l19.61-9.62c-1.56 7.03-2.37 15.14-.91 23l-17.56 18.7zm-22.78 2.9l-.1-.08a15.23 15.23 0 0 1-5.29-13.72 15.5 15.5 0 0 1 8.69-12.2l.5-.24c-.37 7.56.4 17.43 3.8 29.7a14.88 14.88 0 0 1-7.32-3.22l-.28-.25zm56.76-39.1a73.85 73.85 0 0 1 4.85-15.48l17.94-8.8-22.79 24.28z"/>
  <path d="M416 203.3c.86-7.29-7.98-11.98-13.51-7.09-5.49 4.87-1.91 14.25 5.41 14.25a8.21 8.21 0 0 0 8.1-7.16zM346 138.79c2.59-.17 5.1.68 7.04 2.39a9.67 9.67 0 0 1 3.3 6.68 8.15 8.15 0 0 0 16.27-1.07 25.87 25.87 0 0 0-8.81-17.87 25.88 25.88 0 0 0-18.87-6.4 26.07 26.07 0 0 0-24.28 27.68 8.15 8.15 0 0 0 16.27-1.06 9.74 9.74 0 0 1 9.07-10.35z"/>
</svg>
