<svg xmlns="http://www.w3.org/2000/svg" viewBox="0 -16 480 480" width="45" height="45">
  <path fill="#fdbd40" d="M464 376l-72 16-56-320 72-16zm0 0"/>
  <path fill="#238892" d="M168 8h96v384h-96zm0 0M8 120h80v272H8zm0 0"/>
  <path fill="#d3843d" d="M8 392h464v48H8zm0 0"/>
  <path fill="#e9686a" d="M264 120h80v272h-80zm0 0"/>
  <path fill="#fdbd40" d="M88 64h80v328H88zm0 0"/>
  <path fill="#cfdfe8" d="M168 72h96v256h-96zm0 0"/>
  <path fill="#e9686a" d="M88 328h80v32H88zm0 0"/>
  <g fill="#fdbd40">
    <path d="M48 288a8 8 0 0 1-8-8V160a8 8 0 0 1 16 0v120a8 8 0 0 1-8 8zm0 0M48 336a8 8 0 0 1-8-8v-16a8 8 0 0 1 16 0v16a8 8 0 0 1-8 8zm0 0M264 176h80v72h-80zm0 0"/>
  </g>
  <path fill="#238892" d="M232 112h-32a8 8 0 0 1 0-16h32a8 8 0 0 1 0 16zm0 0M232 304h-32a8 8 0 0 1 0-16h32a8 8 0 0 1 0 16zm0 0"/>
  <path d="M472 384h-7.11l.84-.18a8 8 0 0 0 6.15-9.2l-56-320a7.99 7.99 0 0 0-9.6-6.4l-72 16a8 8 0 0 0-6.14 9.2l6.74 38.58H272V8a8 8 0 0 0-8-8h-96a8 8 0 0 0-8 8v48H88a8 8 0 0 0-8 8v48H8a8 8 0 0 0-8 8v320a8 8 0 0 0 8 8h464a8 8 0 0 0 8-8v-48a8 8 0 0 0-8-8zm-296 0v-48h80v48zm-80 0v-16h64v16zm0-48h64v16H96zm80-256h80v240h-80zm160 160h-64v-56h64zm-64 16h64v128h-64zm80-46.17L382.48 384H352zM401.6 65.6l53.2 304.25-56.36 12.55L345.2 78.15zM336 128v40h-64v-40zM176 16h80v48h-80zM96 72h64v248H96zm-80 56h64v256H16zm448 304H16v-32h448zm0 0"/>
  <path d="M48 152a8 8 0 0 0-8 8v120a8 8 0 0 0 16 0V160a8 8 0 0 0-8-8zm0 0M48 304a8 8 0 0 0-8 8v16a8 8 0 0 0 16 0v-16a8 8 0 0 0-8-8zm0 0M232 96h-32a8 8 0 0 0 0 16h32a8 8 0 0 0 0-16zm0 0M232 288h-32a8 8 0 0 0 0 16h32a8 8 0 0 0 0-16zm0 0"/>
</svg>
