<svg xmlns="http://www.w3.org/2000/svg" viewBox="-68 0 512 512" width="45" height="45">
  <path fill="#e99695" d="M47.6 7.52A40.08 40.08 0 0 0 7.51 47.59v416.82h360.7V7.5zm0 0"/>
  <path fill="#a58ace" d="M47.6 7.52A40.08 40.08 0 0 0 7.51 47.59v416.82h64.12V7.5zm0 0"/>
  <path fill="#fff6df" d="M47.6 424.33a40.08 40.08 0 1 0 0 80.15h320.62v-80.15zm0 0"/>
  <path fill="#ffedbf" d="M63.63 480.44a40.08 40.08 0 0 1-39.13-48.78 40.08 40.08 0 0 0 23.09 72.83h320.63v-24.05zm0 0"/>
  <path fill="#a58ace" d="M320.13 472.42l-24.05-16.03-24.05 16.03v-48.1h48.1zm0 0"/>
  <path fill="#f4f0f9" d="M320.13 264.02V87.67a32.06 32.06 0 0 1-32.07-32.06H151.8a32.06 32.06 0 0 1-32.07 32.06v176.35a32.06 32.06 0 0 1 32.07 32.06h136.26a32.06 32.06 0 0 1 32.06-32.06zm0 0"/>
  <path fill="#ffdb7e" d="M272.03 215.92a64.13 64.13 0 0 1-50.75-103.3 64.14 64.14 0 0 0 10.67 127.35 64 64 0 0 0 50.75-24.95c-3.47.58-7.03.9-10.67.9zm0 0"/>
  <path fill="#ffd15e" d="M247.98 223.94a64.13 64.13 0 0 1-52.63-100.74 64.13 64.13 0 1 0 87.35 91.82c-.92.16-1.85.29-2.79.4a63.77 63.77 0 0 1-31.93 8.52zm0 0"/>
  <path d="M368.22 102.87a7.51 7.51 0 0 0 7.51-7.52V7.52A7.51 7.51 0 0 0 368.22 0H47.59A47.65 47.65 0 0 0 0 47.6v416.8A47.65 47.65 0 0 0 47.6 512h320.62a7.51 7.51 0 0 0 7.51-7.52V132.1a7.51 7.51 0 0 0-15.03 0v284.72H79.16V15.03H360.7v80.32a7.52 7.52 0 0 0 7.52 7.52zm-7.52 394.1H47.6a32.6 32.6 0 0 1-32.57-32.56 32.6 32.6 0 0 1 32.56-32.57h216.93v40.58c0 5.88 6.77 9.53 11.68 6.26l19.88-13.26 19.88 13.26c4.9 3.27 11.68-.38 11.68-6.26v-40.58h33.06zm-48.1-65.13v26.54l-12.35-8.24a7.52 7.52 0 0 0-8.34 0l-12.36 8.24v-26.54zM64.13 416.81H47.6a47.41 47.41 0 0 0-32.56 12.94V47.59A32.6 32.6 0 0 1 47.6 15.03h16.53zm0 0"/>
  <path d="M327.64 87.67a7.52 7.52 0 0 0-7.51-7.51 24.57 24.57 0 0 1-24.55-24.55 7.52 7.52 0 0 0-7.52-7.52H151.8a7.51 7.51 0 0 0-7.52 7.52 24.57 24.57 0 0 1-24.55 24.55 7.51 7.51 0 0 0-7.51 7.51v176.35a7.52 7.52 0 0 0 7.51 7.51 24.57 24.57 0 0 1 24.55 24.55 7.52 7.52 0 0 0 7.52 7.51h136.26a7.52 7.52 0 0 0 7.52-7.51 24.57 24.57 0 0 1 24.55-24.55 7.52 7.52 0 0 0 7.51-7.51zm-15.03 169.54a39.7 39.7 0 0 0-31.35 31.35H158.6a39.7 39.7 0 0 0-31.35-31.35V94.47a39.7 39.7 0 0 0 31.35-31.35h122.67a39.7 39.7 0 0 0 31.34 31.35V257.2zm0 0"/>
  <path d="M281.46 207.6a56.67 56.67 0 0 1-66.04-55.81 56.06 56.06 0 0 1 11.8-34.58c4.1-5.3-.6-13.1-7.18-12a71.38 71.38 0 0 0-59.73 70.63c0 39.5 32.14 71.64 71.64 71.64a71.2 71.2 0 0 0 56.7-27.86c4.1-5.3-.6-13.11-7.19-12.01zm-49.5 24.85a56.67 56.67 0 0 1-56.62-56.6 56.42 56.42 0 0 1 29.86-49.95 71.23 71.23 0 0 0-4.8 25.9c0 36.6 27.56 66.86 63.03 71.12a56.25 56.25 0 0 1-31.48 9.53zm0 0M320.13 328.64H111.72a7.52 7.52 0 0 0 0 15.03h208.4a7.52 7.52 0 0 0 0-15.03zm0 0M111.72 368.72a7.52 7.52 0 0 0 0 15.03h64.12a7.52 7.52 0 0 0 0-15.03zm0 0M320.13 368.72H207.9a7.52 7.52 0 0 0 0 15.03h112.22a7.52 7.52 0 0 0 0-15.03zm0 0"/>
</svg>
