<svg xmlns="http://www.w3.org/2000/svg" width="383.3" height="252.8">
  <path fill="#5e3120" stroke="#5e3120" stroke-linecap="round" stroke-linejoin="round" stroke-width="4.63" d="M317.7 208.9l63.2-73.3-202.1 56.6-48.6 55.6 187.5-38.9z"/>
  <path fill="#c9c7b8" d="M368.4 132.4l-170.5 46.9 44.2 17.5 52.9 16.8 6.4 2.7"/>
  <path fill="#ededdd" d="M300.2 215.2s-1.9-4.1 22.4-27.1l45.8-55.8s2.9 0 4.4 5.5l-60.5 75.5z"/>
  <path fill="#f4f4ea" d="M299.8 213.5s62.3-73.7 62.3-84.7c0 0-152.6 47.4-161.4 48l28.9 20.2z"/>
  <path fill="#c9c7b8" d="M311.9 205.8l2.4-3.1 6.3-8.1 19.2-24.3 19.6-24 6.5-7.8 2.5-3-56.5 70.2zM369.8 137.5l-2.4 3.1-6.5 8.2-19.9 24.7-20.3 24.4-6.8 8-2.6 3 58.4-71.4zM314.4 207.3l2.2-2.8 5.9-7.5 18.1-22.5 18.5-22.2 6.2-7.2 2.4-2.7-53.2 65z"/>
  <path fill="#afada1" d="M341.6 144.5l-1 2.2-1.3 2.5c-.5 1-1.1 2-1.8 3.2l-2.2 3.7-.6 1-.7 1-1.4 2-3 4.1-3 4.3-3.1 4.2c-1 1.4-2.2 2.7-3.2 4l-1.6 1.9-1.6 1.7-3 3.1-2.6 2.5-2 1.9-1.8 1.6h-.1l1.6-1.8 1.9-2.1 2.4-2.7 2.8-3.2 3.1-3.6 3.3-3.9 3.4-4 3.2-4.2a48.7 48.7 0 0 0 2.8-4.2l2.5-4.1 2.3-3.6 1.9-3.1 1.5-2.4 1.3-2zM325.7 148.7l-1 2.6-1.2 2.9-1.9 3.6c-.4.7-.7 1.4-1.2 2l-1.4 2.1-1.6 2.1c-.5.7-1.2 1.4-1.8 2.1l-3.8 4.4-1.9 2.3c-.6.8-1.1 1.6-1.7 2.4s-2.2 3.3-3.2 5l-3.1 4.9-2.9 4.5-2.6 4-1.1 1.8-.9 1.7-.7 1.5-.5 1.3a17.9 17.9 0 0 0-.7 1.9l-.2.7h-.1v-.7a17.1 17.1 0 0 1 .5-2 26.6 26.6 0 0 1 1-3l.8-1.8 1-1.9c.7-1.3 1.6-2.7 2.5-4.1l2.9-4.5 3.2-4.8c1.1-1.6 2.3-3.2 3.5-4.8s2.5-3.1 3.8-4.6l3.6-4.5c.6-.7 1.2-1.4 1.6-2.2l1.4-2.2 1.4-2c.5-.7.8-1.3 1.2-2l2.1-3.5 1.4-2.8 1.3-2.4zM314.1 152.2l-.8 2.2c-.2.7-.7 1.5-1.2 2.4a34.4 34.4 0 0 1-1.8 3c-.8 1-1.6 2.1-2.5 3.2l-3 3.4-3.3 3.6-1.6 1.9-1.6 1.9-1.5 2-1.4 2.1c-.4.7-.9 1.4-1.3 2.1l-1.1 2.1c-.8 1.4-1.3 2.8-1.9 4.1l-1.7 3.7-1.3 3.2c-.4.9-.7 1.8-1 2.5l-.8 2.1h-.1l.5-2.3c.2-.7.4-1.6.7-2.6s.7-2.1 1.1-3.3 1-2.4 1.7-3.7l1.1-2 1.2-2 2.6-4.1c.9-1.4 1.8-2.8 2.8-4.2s2-2.7 3-4.1l3.2-3.7 3-3.4 2.6-3.1 1.1-1.4.9-1.3c.5-.9 1-1.6 1.4-2.2l1.1-2.1zM301.1 157.4l-.8 1.6-1 1.8-.6 1.1-.8 1.2-1.9 2.6c-.7.9-1.5 1.8-2.3 2.7l-2.4 2.9-2.3 3.2-2.2 3.2-2 3.2-1.7 3c-.5 1-1 1.9-1.4 2.8l-.6 1.3-.5 1.2-.7 1.9-.6 1.7h-.1l.3-1.8a15 15 0 0 1 .5-2l.4-1.2.5-1.3.6-1.4.7-1.5.8-1.5.9-1.6 2.2-3.1 2.4-3.1 2.5-3 2.2-3.1 2-2.9 1.9-2.5.9-1.1.7-1 1.2-1.7 1.1-1.4zM288.2 161.3l-.8 1.3-2.3 3.2-1.6 2.1-1.7 2.4-1.8 2.5-2 2.5-1.7 2.7-1.5 2.7c-.4.9-.9 1.8-1.3 2.6l-1.2 2.3c-1.5 2.9-2.7 4.7-2.7 4.7h-.1s.7-2.1 2-5l1.1-2.4.7-1.2.8-1.2 1.7-2.6 1.5-2.9 1.7-2.8 1.7-2.6.8-1.2.9-1.1 1.7-2 2.6-2.9 1-1.1zM275.5 163.7l-.8 1.2-2.3 3.2-1.6 2.1-1.7 2.4-1.8 2.5-2 2.5-1.7 2.7-1.5 2.7c-.4.9-.9 1.8-1.3 2.6l-1.2 2.3c-1.5 2.9-2.7 4.7-2.7 4.7h-.1a54.1 54.1 0 0 1 2-5l1.1-2.4.7-1.2.8-1.2 1.7-2.6 1.5-2.9 1.7-2.8 1.7-2.6.8-1.2.9-1.1 1.7-2 2.6-2.9 1-1.1z"/>
  <g>
    <path fill="#425560" d="M286.5 189.1a7.9 7.9 0 0 1 1.3 5.2c-.6 3.2-4.3 4.6-7.5 5.4a124.6 124.6 0 0 1-43.2 2.4c-3.7-.4-7.6-1.1-10.5-3.6s-4.8-8.6-3.9-13.4 3.4-9.1 5.9-13.3a28.8 28.8 0 0 1 5.1-7c14.2-13 46 11.6 52.8 24.3z"/>
    <path fill="#4e6472" d="M250.3 180.2c7.7 3.4 15.8 9.1 16.4 17.5.1 2-.2 4.2-1.7 5.5a7.8 7.8 0 0 1-3.3 1.5c-5.6 1.4-11.3 1.8-17.1 2.1-17.7 1-36.5 1.8-52-6.7-3.2-1.8-6.4-4-8.1-7.3-6.9-12.9 17.2-18.1 25.6-19.2 13.6-1.6 27.7 1.1 40.2 6.6z"/>
    <path fill="#e0492b" d="M183.2 189.1c24.5-2.7 50.7-12.1 71.9-24.7a5.9 5.9 0 0 0 3.7-7.2 158.8 158.8 0 0 0-14.4-50.1 17.1 17.1 0 0 0-3.5-5.4c-2.1-1.9-4.9-2.7-7.7-3.3-15.2-2.9-42.2 2.2-46.2 19.8-5.1 22.5-9.7 48.3-3.8 70.9z"/>
    <path fill="#352d2c" d="M227.4 114.1a15.5 15.5 0 0 1-8.3 3.4c-4.8.5-9.6-1.3-13.8-3.5 3.8-2.1 8.4-2.6 12.8-3.2a35.5 35.5 0 0 0 12.1-3.8c1.7 2-.9 5.5-2.8 7.1zM238.6 131.9l1.4 2.3s6.4 18.8 8.3 34c0 0 3.5 18.1 16.8 13.9 0 0 2.7-2.3 3.9-1s4.1 2.5 5.7-1.3l-6.9-4.3h-7.6l-3.9-6.1-11.7-44z" opacity=".2"/>
    <g>
      <path fill="#efd4c2" d="M267.6 164.9a7.3 7.3 0 0 1 2-.8 5 5 0 0 1 4.9 2.6 14.6 14.6 0 0 1 1.6 5.6c.3 2.2.6 4.5-.4 6.4s-3.8 3-5.4 1.5a5.9 5.9 0 0 0-1-1c-1.3-.8-2.7.9-3.9 1.7a5.9 5.9 0 0 1-5.6.2c-14.2-6 1.2-12.7 7.8-16.2z"/>
      <path fill="#efd4c2" d="M252.6 109.9c6.2 24.6 7.4 40.8 9.5 66.1a5.4 5.4 0 0 1 0 1.7c-.6 2.3-3.9 2.8-5.8 1.4s-2.6-3.8-3.3-6.1c-6.3-22.1-9.4-35.4-15.4-57.5l-2.8-10.1c-1.5-5.6.6-10.9 7-9.4s9.4 8.1 10.8 13.9z"/>
      <path fill="#e0492b" d="M238.6 131.9s10.6-10.8 20.4-6.3c0 0-3.7-27.8-14.4-30 0 0-15.7-.8-11.9 14.3z"/>
      <path fill="#ad9586" d="M241.4 129.5s6.8-6.2 14.6-4.8l.3 1.3s-12 1.7-14.7 4.1z" opacity=".5"/>
    </g>
    <g>
      <path fill="#efd4c2" d="M252 61.6c2.5 11.1 1 23.3-5.7 32.5-11.8 16.1-39.8 25.6-58.9 20.2-10.9-3.1-19.6-11.5-25.4-21.2s-9-20.7-11.9-31.6-5.4-21.1-2.4-31.2c4.9-16.5 24.2-25.6 41.4-23.5 26.2 3.1 55.2 27 62.3 52.6z"/>
      <path fill="#fff" d="M194.5 68.3c3.4 3.8 10.5 3.7 13.5-.8s-7.5-19.7-14-14.5c-4.3 3.4-2.8 11.2.2 14.9z"/>
      <ellipse cx="212.9" cy="121.4" fill="#3d3430" rx="2.6" ry="3.8" transform="rotate(-20.8 57.15 119.75)"/>
      <ellipse cx="212.9" cy="122.9" fill="#fff" rx="1.1" ry="1.6" transform="rotate(-20.8 57.17 121.16)"/>
      <path fill="#fff" d="M221.5 56.9c3.4 3.8 10.5 3.7 13.5-.8s-7.5-19.7-14-14.5c-4.3 3.4-2.8 11.2.2 14.9z"/>
      <ellipse cx="240" cy="110.1" fill="#3d3430" rx="2.6" ry="3.8" transform="rotate(-20.8 84.3 108.4)"/>
      <ellipse cx="239.9" cy="111.5" fill="#fff" rx="1.1" ry="1.6" transform="rotate(-20.8 84.05 109.76)"/>
      <path fill="#ad9586" d="M231.5 62.5a1.1 1.1 0 0 1 .8.1 1 1 0 0 1 .3.8 7.5 7.5 0 0 1-8.1 8.1 4.7 4.7 0 0 1-2.5-.9 5 5 0 0 1-1.3-1.7c-1.1-2.1-3.4-7.5.4-8 1.4-.2 3.5 1.2 5 1.4a20.6 20.6 0 0 0 5.4.2z"/>
      <path fill="#917c70" d="M204.9 82.4h.2l.5.3.9.4 1.2.3 1.5.3h3.6l1.9-.2 1.9-.4 1.8-.5 1.7-.6 1.5-.6 2.1-1 .8-.4-.8.5-2.1 1.2-1.4.7-1.6.7-1.8.6-1.9.5-2 .4-1.9.2h-1.8l-1.6-.2-1.4-.3-1.1-.3-.7-.3h-.2z"/>
      <path fill="#917c70" d="M206.6 80.9l-.7.6a5.5 5.5 0 0 0-1.2 1.7 3.9 3.9 0 0 0-.3 1.1 3.5 3.5 0 0 0 0 1 3.8 3.8 0 0 0 .1.7v.3h-.1a2.3 2.3 0 0 1-.9-.9 1.7 1.7 0 0 1-.2-.6 2.1 2.1 0 0 1-.1-.7 2.6 2.6 0 0 1 .1-.7l.2-.7.4-.6.5-.5a3 3 0 0 1 1.1-.6 2.5 2.5 0 0 1 1.3-.1z"/>
      <path fill="#60483d" d="M232 27.7a17.6 17.6 0 0 0 2.3-3.5l1.2-2.2.9-1.8a13.9 13.9 0 0 0 .7-9.4 13.5 13.5 0 0 0-2.5-4.1c-.7-.9-2.8-2-3.3-2.9a18.2 18.2 0 0 1 1.6 9.2 28.8 28.8 0 0 0-17.7-13 11.4 11.4 0 0 1 3.8 9.8 58.4 58.4 0 0 0-9.7-6.4l-.5 2.8c-17-3.1-35.8-2.7-49.8 7.5-12.2 8.9-19 24.9-17 40a16.7 16.7 0 0 0 2.2 6.9 12.1 12.1 0 0 1 1.4 2.3 8.8 8.8 0 0 1 .1 4 33.9 33.9 0 0 0 7.1 24.9 32.8 32.8 0 0 0 22.6 12 31.3 31.3 0 0 1-5.3-12.9c-.3-2-.1-4.2-.4-6.1s-1.5-3.7-1.3-6c.1-.7.3-1.6 1-1.8a2.4 2.4 0 0 1 1.4.3 6.3 6.3 0 0 0 5.3-.4 4.8 4.8 0 0 1-3-3.3c-1-3.6 2.9-8.2 3.3-11.9a17.2 17.2 0 0 0-.8-7.5 14.7 14.7 0 0 0-2.6-3.8c-.9-1.2-2.1-3.9-3.4-4.6 5.5 3 11.3 1.4 17-.2s11.6-4.1 17.5-5.8 10.3-3.2 15.3-5.2 9.7-3.4 12.7-6.6z"/>
      <path fill="#efd4c2" d="M171.1 77.3a25.6 25.6 0 0 0-7-1.2 8.7 8.7 0 0 0-6.4 2.6 8.5 8.5 0 0 0-1.5 2.5 13.2 13.2 0 0 0 5.7 15.9 11.5 11.5 0 0 0 10.4.4 9.4 9.4 0 0 0 5.3-8.7"/>
      <path fill="#917c70" d="M168.9 93.1h-1.5a7 7 0 0 1-1.8-.3 6.9 6.9 0 0 1-2.1-1.1 7.1 7.1 0 0 1-2.8-5.1v-.8a7.6 7.6 0 0 1 .2-1l.2-.4.3-.4.6-.7a5.5 5.5 0 0 1 1.5-1l.9-.3.8-.2h2.8l.8.3.8.6a3 3 0 0 1 .7.7l.3.4h.1v1.6a3 3 0 0 1 0 .4 3.2 3.2 0 0 1-.2 1l-.2.5-.2.2h-.2l-.3.2-.5.3a2.7 2.7 0 0 1-1.8-.1l-.7-.5h-.3l-.2-.3a2.6 2.6 0 0 1-.3-1.5 2.9 2.9 0 0 1 .3-1.2v-.3l.2-.2.3-.3.8-.5 1.2-.3-1 .5-.5.5-.3.4v.3a2 2 0 0 0 .2 1.7l.2.2h.2l.4.2a1.3 1.3 0 0 0 .9 0h.1l.3-.2h.1v-.2a1.7 1.7 0 0 0 .1-.5 2.1 2.1 0 0 0 0-.4v-1l-.2-.3a2.8 2.8 0 0 0-.9-.9l-.7-.3h-2.1l-.8.2-.7.2-1.3.7-.5.5-.2.3-.2.4-.2.6v.8a6.6 6.6 0 0 0 .7 2.7 6.3 6.3 0 0 0 3.4 3.1 6.6 6.6 0 0 0 1.7.4h1.5z"/>
      <path fill="#60483d" d="M226.9 2.9l.6.3.6.3.8.5.4.4.2.2.2.2.8 1 .4.6.3.6.7 1.2c.2.4.4.9.5 1.3l.5 1.3.6 2.4.2 2.4-3-.2.2-2.1c0-.6 0-1.4-.1-2.2s-.1-.8-.2-1.2a12 12 0 0 0-.2-1.3l-.4-1.3-.2-.6-.2-.5a6.4 6.4 0 0 0-.5-1.1v-.4l-.3-.4-.6-.6-.5-.5zM228.5 28.6l.9-.4 2.2-1.1 1.4-.8 1.5-1 1.4-1.3.2-.2h.1l.3-.4.6-.9a12.7 12.7 0 0 0 .8-1.8l.3-.9.2-.9a17.3 17.3 0 0 0 .3-1.8c.1-.6.1-1.1.2-1.7s0-1 .1-1.4 0-.8 0-1.1c0 .3.1.7.1 1.1v1.4c0 .5 0 1.1-.1 1.7a17.6 17.6 0 0 1-.2 1.9l-.2 1-.3 1a13.1 13.1 0 0 1-.8 2l-.5.9-.3.4h-.2l-.2.2a13.8 13.8 0 0 1-1.4 1.5l-1.5 1.2-1.4 1-2.2 1.3-.8.5z"/>
      <path fill="#60483d" d="M231.1 26.8l.7-.6.8-.7 1-.9 1.1-1.2a15.4 15.4 0 0 0 1-1.4l.5-.9.4-.9a12.6 12.6 0 0 0 .7-1.9 11.7 11.7 0 0 0 .4-2 10.8 10.8 0 0 0 .2-1.9 10.3 10.3 0 0 0-.1-1.8 11 11 0 0 0-.2-1.6l-.2-1.4-.4-1-.3-.9.4.9.5 1 .4 1.4a11.2 11.2 0 0 1 .4 1.6 10.7 10.7 0 0 1 .2 1.9 11.5 11.5 0 0 1 0 2 12.4 12.4 0 0 1-.3 2.1 13.2 13.2 0 0 1-.6 2 5.1 5.1 0 0 1-.4.9l-.4.9a16 16 0 0 1-1 1.7l-1.1 1.4-1 1.1-.8.8-.7.6zM170 45.8l.9.5 1 .7 1.3 1.1 1.3 1.4a17.2 17.2 0 0 1 1.2 1.8 12.4 12.4 0 0 1 1 2.1l.4 1.1.2 1.2v2.4c0 .4 0 .8-.1 1.1s-.1.8-.2 1.2a9.8 9.8 0 0 1-.9 1.9l-1.1 1.6-.5.7-.5.6-.8.9-.7.8.7-.8.8-1 .5-.6.4-.7 1-1.6.4-.9.3-1 .2-1V56l-.3-1.1-.4-1a11.5 11.5 0 0 0-1-1.9 16.1 16.1 0 0 0-1.2-1.6l-1.3-1.3-1.2-.9-1-.6-.9-.5z"/>
      <path fill="#60483d" d="M171.6 45.1l.8.6.9.6 1.2.7 1.4.7 1.7.6.9.2h2.9l1-.2.9-.3 1.7-.9 1.5-1 1.3-1 1.1-.9.8-.7.7-.6-.7.7-.8.8-1 1-1.3 1.1-1.5 1.1-1.8 1-1 .4-1 .3-1 .2h-3.2l-1.9-.5-1.6-.6-1.3-.7-1-.6-.8-.5zM230.8 11.9l-.3-.7-.3-.7-.4-.9-.6-1-.7-1.1-.9-1.2-1-1.2-1.1-1.1-1.1-1-1.1-.8-1-.7-1.6-.9-.6-.3.7.3 1.7.7 1.1.6 1.2.8 1.2.9 1.2 1 1.1 1.1 1 1.1.9 1.1.7 1.1.5.9.4.7.3.6zM214.6 1.6l1.2 1.5.6.7.6.8.7.9.7 1a16.2 16.2 0 0 1 1.2 2.1 9.5 9.5 0 0 1 .7 2.1 5.7 5.7 0 0 1 .1.9 3.7 3.7 0 0 1 0 .7v.7l-2.9-.6v-.8a3.4 3.4 0 0 0 .1-.6 7.2 7.2 0 0 0-.1-1.7 14.3 14.3 0 0 0-.6-2l-.4-1-.4-1-.4-.9-.4-.8z"/>
      <path fill="#60483d" d="M212.3 3l1.5 1.2.7.6.8.7.8.8.8.9.7 1 .6 1 .4 1a7.2 7.2 0 0 1 .3 1 5.2 5.2 0 0 1 .2.8 4 4 0 0 1 .1.7v.6h-1.5v-.5a3 3 0 0 0 0-.5 4 4 0 0 0 0-.7 5.8 5.8 0 0 0-.1-.8 9.3 9.3 0 0 0-.3-.9l-.4-1-.5-1-.6-.9-.7-.8-.7-.8-.6-.7zM147.1 71.5v1.6a6.8 6.8 0 0 0-.1 1.1v2.7a14.1 14.1 0 0 0 .1 1.5l.2 1.6c.2 1.1.3 2.1.6 3.1s.5 1.9.7 2.7.5 1.4.6 1.9l.2.7-.3-.7c-.2-.4-.5-1-.8-1.8s-.6-1.7-.9-2.6-.6-2-.9-3.1l-.3-1.6a15 15 0 0 1-.2-1.6c-.1-.5-.1-1-.2-1.5v-1.4a7.7 7.7 0 0 1 0-1.1v-1.6z"/>
      <path fill="none" stroke="#44332c" stroke-linecap="round" stroke-miterlimit="10" stroke-width="1.48" d="M188.1 50.1s-.5-11.4 8.7-4.2M215.6 37.9s-.4-12.4 8.9-3.2"/>
      <path fill="#7f6257" d="M231.3 18.4l-2.1 2-2.4 2.2-3.4 2.6c-1.2 1-2.7 1.8-4.2 2.8l-2.4 1.5-2.6 1.3-2.7 1.3-2.9 1.2-2.9 1.2-3 1-3 .9-3.1.7-3 .6-3 .4-2.9.3h-9.1l-1.1-.2-2-.5-1.7-.5-1.4-.6-1.1-.5-.8-.5-.7-.4h.1l.7.3a18.1 18.1 0 0 0 1.9.8l1.4.5 1.7.4 2 .3h7.2a47.6 47.6 0 0 0 5.6-.6l2.9-.4 3-.6 3-.7 3-.9 3-.9 2.9-1.1 2.8-1.1 2.7-1.3 2.6-1.2 2.4-1.4c1.5-.9 3-1.7 4.3-2.6l3.5-2.4 2.6-2 2.2-1.8z"/>
      <path fill="#7f6257" d="M171.3 31.7l2 .2 2.2.2h8.3l2-.2 4.1-.6 2.1-.5 2.1-.5 4-1.3 2-.7 1.9-.8 3.5-1.6 3-1.7a15 15 0 0 0 2.3-1.8l.8-.9.6-.8.3-.4.2-.3.3-.6.2-.5h.1l-.2.5-.2.6v.4l-.2.4-.5.9-.8 1a12.3 12.3 0 0 1-2.2 2.1 27.5 27.5 0 0 1-3 2l-3.9 1.8-1.9.9-1.9.8-1 .4-.5.2-.6.2-2.1.7-2.1.5-2.1.5-4.2.5H182l-3.5-.2a23.6 23.6 0 0 1-3-.4l-2.2-.4-1.9-.5z"/>
      <path fill="#7f6257" d="M171.8 33.4l1.4.2 1.5.3 2 .3 2.3.2h5.3l2.8-.2 2.8-.4 2.7-.5 2.5-.6 2.2-.7 1.9-.6 1.5-.5.9-.4h.4l-1.2.7-1.4.8-1.8.9-2.2.9-2.5.8-2.8.6-2.9.4h-5.8l-2.7-.3-2.4-.5-2-.5-1.5-.5-1.3-.5zM167.2 50.2l.9.4 1 .7.5.5.5.6a6.6 6.6 0 0 1 .8 1.7 6.1 6.1 0 0 1 .3 2.1v.7a4.9 4.9 0 0 1-.3 1.1 15.4 15.4 0 0 1-.8 2l-.9 1.9a15.8 15.8 0 0 0-.8 1.8 7.9 7.9 0 0 0-.3.9l-.2.9a4.9 4.9 0 0 0-.1.8 5.1 5.1 0 0 0 .1.8 4.4 4.4 0 0 0 .4 1.3 3.4 3.4 0 0 0 .6.9l.5.5.2.2h-.3l-.6-.5-.7-.9a4.9 4.9 0 0 1-.5-1.4 5.7 5.7 0 0 1-.1-.9 5.4 5.4 0 0 1 0-.9 9.1 9.1 0 0 1 .3-1.9 16.8 16.8 0 0 1 .7-2l.8-1.9a12.3 12.3 0 0 0 .6-1.9 4.9 4.9 0 0 0 .2-.9v-.7a7.4 7.4 0 0 0-.6-3.1l-.3-.6-.3-.5-.6-.8-.7-.7zM166 53.4v.2l.3.6a4.7 4.7 0 0 1 .2 2.5 6.7 6.7 0 0 1-.2.8l-.3.8-.7 1.7-.4.9-.2.4v.4l-.3 1a5.3 5.3 0 0 0-.1.9 7.4 7.4 0 0 0 0 .9v1.8l.2.9.5 1.6.7 1.4.7 1.1a6.1 6.1 0 0 0 .6.8l.6.7h-.1l-.8-.5a4.1 4.1 0 0 1-.9-.6l-1-1-1-1.5a13.4 13.4 0 0 1-.7-1.8l-.2-1v-2.1a8.7 8.7 0 0 1 .1-1.1 6.9 6.9 0 0 1 .2-1.1l.3-1 .2-.5.2-.4.5-.9.8-1.6.4-.8.2-.7a4.3 4.3 0 0 0 .1-2.3l-.3-.6v-.2z"/>
      <g>
        <circle cx="191.7" cy="76.8" r="1.1" fill="#685a52"/>
        <circle cx="197.7" cy="75.2" r="1.1" fill="#685a52"/>
        <circle cx="195.4" cy="79" r="1.1" fill="#685a52"/>
        <ellipse cx="204.8" cy="132.2" fill="#c13a3a" opacity=".5" rx="7.6" ry="4.1" transform="rotate(-13.3 -38.21 145.08)"/>
      </g>
      <g>
        <circle cx="253" cy="109.8" r="1" fill="#685a52" transform="rotate(-47.3 184.74 93.01)"/>
        <circle cx="248.3" cy="112.6" r="1" fill="#685a52" transform="rotate(-47.3 180.2 95.92)"/>
        <circle cx="252.1" cy="113.5" r="1" fill="#685a52" transform="rotate(-47.3 183.92 96.74)"/>
        <ellipse cx="250.9" cy="112" fill="#c13a3a" opacity=".5" rx="6.7" ry="3.6" transform="rotate(-34 155.6 99.97)"/>
      </g>
      <path fill="#352d2c" d="M190.3 128.9s3.3 21.7 6.9 25.5l4.2-3.3 18.3 29.5 18.7 11.4-13.4-22.9-21.5-27.1z" opacity=".2"/>
      <g fill="#efd4c2">
        <path d="M195.3 112.4c-3.1 2.8-4.1 7.4-3.5 11.5s2.6 7.9 4.7 11.6c11.9 21.7 22.8 33.4 38.4 52.6 1.7 2.1 3.9 4.3 6.5 3.7s3.2-2.6 3.2-4.7a14.1 14.1 0 0 0-1.5-5.8c-7.9-18.6-12.9-28.3-20.8-46.9-2.4-5.6-3.2-12.8-6.9-17.6s-13.9-9.9-20.1-4.4z"/>
        <path d="M253.2 176.1a3.4 3.4 0 0 1 2.1-.6c.9.2 1.5 1.1 1.9 1.9a32.8 32.8 0 0 1 2.7 8.1c.4 2.1.5 4.4-.9 6s-4.7 1.6-5.4-.4c1.2 3.8-14.9 4.1-17.1-1.2-2.9-6.7 11.8-11.2 16.7-13.8z"/>
      </g>
      <path fill="#ad9586" d="M224.1 138.9s-15.5 5.1-19.6 10.2l-1.5-2.3s14.8-8.5 21.1-7.9z" opacity=".5"/>
      <path fill="#352d2c" d="M208.5 107.6a14.7 14.7 0 0 0-7-2 12.7 12.7 0 0 0-3.4.4 14.3 14.3 0 0 0-9.5 8.6c3.8.9 6.9 1.6 10.5 1.4s7.4-1.5 11-1.7c1-.1 4.1.3 4.8-.4s-1.3-2.5-2-3.1a26.3 26.3 0 0 0-4.4-3.2z" opacity=".2"/>
      <path fill="#e0492b" d="M189.8 126.1a57.8 57.8 0 0 0 3.2 12.3 118.7 118.7 0 0 0 4.9 12.8c2.2-3 5.7-4.8 9.1-6.4 6.1-3 12.4-6 19.2-5.8-2.1-9.3-4.6-19.1-11.4-25.9a25.9 25.9 0 0 0-5.7-4.3c-2.6-1.5-5.7-2.5-8.7-1.9-8.2 1.7-11.4 11.9-10.6 19.2z"/>
    </g>
  </g>
  <g>
    <path fill="#c9c7b8" d="M285.1 204.6l-141.8-52.8S42.2 200.5 0 194.7c0 0 5.3 3.4 17.9 7.5l123-25.3z"/>
    <path fill="#ededdd" d="M140.9 181.2v-22.1l145.9 45.5s16 4.1 18.4 10.6l-38.3 1-126-33.7"/>
    <path fill="#dbdac8" d="M140.9 159.1L0 205.3a15.7 15.7 0 0 1 0 12L140.9 189s5.5-21 0-29.9z"/>
    <path fill="#703c25" stroke="#703c25" stroke-linecap="round" stroke-linejoin="round" stroke-width="4.63" d="M137 180.5L285.2 216 111 247.8 4.7 221.9 137 180.5z"/>
    <path fill="#703c25" d="M305.1 220.1l-181.7 32.5a19.5 19.5 0 0 1-12.3-3.1l170.7-34.3 13.1 2.6z"/>
    <path fill="#a09d90" d="M289.1 215.2s16.1-7.3 27.6-5l-11 7.3-16.6-1.9"/>
    <path fill="none" stroke="#703c25" stroke-linecap="round" stroke-linejoin="round" stroke-width="4.63" d="M286.8 215.2s19.7 10.1 30.9-6.3"/>
    <path fill="#c9c7b8" d="M148.5 168l5.9 1.6 15.5 4.5 47 13.8 46.9 14.3 15.4 4.8 5.8 1.8L148.5 168zM152.4 172.3l5.6 1.5 14.7 4 44.6 12.3 44.5 12.8 14.6 4.3 5.5 1.7-129.6-36.5zM161.8 180.9l5.3 1.2 14 3.2 42.3 10.2 42.2 10.6 13.9 3.6 5.3 1.4-123-30.1zM138.5 166.6l-5.8 1.9-15.3 5-46.4 15L24.4 203 9 207.7l-5.8 1.8 135.3-42.9z"/>
    <path fill="#5e3120" d="M113.3 248.6l7.2-1.7 19-4.2 26.9-5.7 15.2-3.1 15.7-3.1 15.7-3.1 15.2-2.9 27.1-5 19.2-3.4 7.3-1.2-7.2 1.7-19 4.2-26.9 5.7-15.2 3.1-15.7 3.1-15.7 3.1-15.2 2.9-27.1 5-19.2 3.4zM136.8 182.6l-17.7 4.9 34.9-2.9-17.2-2z"/>
  </g>
</svg>
