<svg xmlns="http://www.w3.org/2000/svg" viewBox="0 0 59 59" width="45" height="45">
  <path fill="#293241" d="M59 41V15h-9a1 1 0 1 0 0 2h7v22H11V17h7a1 1 0 1 0 0-2h-7V7l-1-1H8a4 4 0 1 0 0 2h1v39l1 1h7a5 5 0 0 0 3 9c3 0 5-2 5-5l-2-4h18a5 5 0 0 0 3 9c3 0 5-2 5-5l-2-4h6a1 1 0 1 0 0-2H11v-5h48zM4 9a2 2 0 0 1 0-4l2 1H5a1 1 0 1 0 0 2h1L4 9zm16 46a3 3 0 1 1 0-6 3 3 0 0 1 0 6zm24 0a3 3 0 1 1 0-6 3 3 0 0 1 0 6z"/>
  <path fill="#293241" d="M34 30a14 14 0 1 0 0-28 14 14 0 0 0 0 28zm0-26a12 12 0 1 1 0 24 12 12 0 0 1 0-24z"/>
  <path fill="#293241" d="M33 25a1 1 0 0 0 1 0 1 1 0 0 0 1 0l7-7a1 1 0 1 0-2-2l-5 6V8a1 1 0 1 0-2 0v14l-5-6a1 1 0 1 0-2 2l7 7z"/>
</svg>
