<svg xmlns="http://www.w3.org/2000/svg" viewBox="0 0 512 512" width="55" heigth="55">
  <path fill="#fcb641" d="M232 8h112v464H232zm0 0"/>
  <path fill="#fce0b0" d="M232 360h112v64H232zm0 0"/>
  <path fill="#33c0db" d="M136 72h96v400h-96zm0 0"/>
  <path fill="#f39237" d="M40 8h96v464H40zm0 0"/>
  <path fill="#9bc53d" d="M120.2 261.4S96 248 104 216c0 0 39.1-8 43.6 24l-5 34.2zm0 0"/>
  <path fill="#e65039" d="M206.8 248c-22.3 0-44.8 13.7-62.8 35.6-18-21.9-40.5-35.6-62.8-35.6-42.8 0-68.7 50.1-57.8 112 10.9 61.9 54.4 112 97.3 112a50 50 0 0 0 23.3-5.7 50 50 0 0 0 23.3 5.7c42.9 0 86.4-50.1 97.3-112 11-61.9-15-112-57.8-112zm0 0"/>
  <path fill="#9bc53d" d="M472 472H344V48a8 8 0 0 1 8-8h112a8 8 0 0 1 8 8zm0 0"/>
  <path fill="#c5d998" d="M344 136h128v32H344zm0 0M344 344h128v48H344zm0 0"/>
  <path fill="#88ad36" d="M344 392h128v32H344zm0 0"/>
  <path d="M384 208h48v16h-48zm0 0M384 240h48v16h-48zm0 0"/>
  <path fill="#b35f39" d="M504 504H8v-16a16 16 0 0 1 16-16h464a16 16 0 0 1 16 16zm0 0"/>
  <path fill="#c7ebf2" d="M136 120h96v32h-96zm0 0"/>
  <path fill="#fad3af" d="M40 72h96v32H40zm0 0"/>
  <path fill="#fce0b0" d="M232 72h112v32H232zm0 0"/>
  <path d="M488 464h-8V48a16 16 0 0 0-16-16H352V16a16 16 0 0 0-16-16h-96a16 16 0 0 0-16 16v48h-80V16a16 16 0 0 0-16-16H48a16 16 0 0 0-16 16v216h16V112h80v80h16v-32h80v64h16V112h96v240h-48v16h48v48h-64v16h64v32H212.2c28.8-20.5 52.6-58.8 60.3-102.6 7-39.4-.3-76.4-19.3-99.1a59.1 59.1 0 0 0-46.4-22.3c-18.5 0-37.3 8.2-54.4 23.3 2.2-37.4 13.8-55.3 55.6-55.3v-16c-33.4 0-51.4 11-61 27.6a32.5 32.5 0 0 0-5.6-5c-15.6-11-38-6.6-39-6.4a8 8 0 0 0-6.2 5.9 52.9 52.9 0 0 0 .1 27.7 59.1 59.1 0 0 0-61.5 20.4C15.8 285 8.6 322 15.5 361.5c7.7 43.8 31.5 82 60.3 102.6H24a24 24 0 0 0-24 24v16a8 8 0 0 0 8 8h496a8 8 0 0 0 8-8v-16a24 24 0 0 0-24-24zm-24-304H352v-16h112zM352 352h80v-16h-80V176h112v160h-16v16h16v32H352zm0 48h112v16H352zM464 48v80H352V48zM336 16v48h-96V16zm-112 96h-80V80h80zm-96-96v48H48V16zM48 96V80h80v16zm96 48v-16h80v16zm96-48V80h96v16zm112 336h112v32H352zM110.8 223.2c6.2-.4 15.3.2 21.5 4.5a18 18 0 0 1 7 12 144 144 0 0 0-3 24.3c-4-3.7-8-6.8-12.2-9.6l-1.7-1.2c-4-2.9-14-12.2-11.6-30zM31.3 358.6c-6.2-34.8-.2-67 15.8-86a43.6 43.6 0 0 1 34-16.6c19 0 39.6 11.9 56.7 32.6 3 3.7 9.3 3.7 12.4 0 17-20.7 37.7-32.6 56.6-32.6 13.2 0 25 5.7 34.1 16.5 16 19.2 22 51.3 15.8 86.1-10.2 58.1-50.3 105.4-89.4 105.4a42 42 0 0 1-19.6-4.8 8 8 0 0 0-7.4 0 42 42 0 0 1-19.6 4.8c-39 0-79.2-47.3-89.4-105.4zM496 496H16v-8a8 8 0 0 1 8-8h464a8 8 0 0 1 8 8zm0 0"/>
  <path d="M280 144h16v128h-16zm0 0"/>
</svg>
