<svg xmlns="http://www.w3.org/2000/svg" viewBox="-26 0 512 512" width="55" height="55">
  <path fill="#56a6e8" d="M230 7.5v38.8h53.6l-15-19.4 15-19.4zm0 0"/>
  <path fill="#ea6789" d="M288 169.2H171.8a5 5 0 0 1-4-8.3L226 91.7a5 5 0 0 1 7.8 0l58 69.2a5 5 0 0 1-3.9 8.3zm0 0"/>
  <path fill="#c7416a" d="M291.8 160.9l-58-69.2a5 5 0 0 0-7.8 0l-5.1 6.1 39.7 63c2 3.4.3 8.4-3 8.4H288a5 5 0 0 0 4-8.3zm0 0"/>
  <path fill="#eab875" d="M181 169.2h97.8v91.5H181zm0 0"/>
  <path fill="#c68d4e" d="M257 169.2h21.8v91.5H257zm0 0"/>
  <path fill="#a65d51" d="M230 189.5a17 17 0 0 1 16.8 17V226H213v-19.6a17 17 0 0 1 17-17zm0 0"/>
  <path fill="#fed89b" d="M253 243.4v17h-46.2v-17h-44a2 2 0 0 0-2 2v46.2c0 1.1.8 2 2 2H179v94h101.8v-94h16.3c1.1 0 2-.9 2-2v-46.1c0-1.2-.9-2-2-2zm0 0"/>
  <path fill="#eab875" d="M297 243.4h-24.2c1 0 1.7 1 1.7 2v46.2c0 1.1-.8 2-1.7 2h-13.4v94h21.4v-94h16.3c1.1 0 2-.9 2-2v-46.1c0-1.2-.9-2-2-2zm0 0"/>
  <path fill="#eab875" d="M110 331h239.9v173.5h-240zm0 0"/>
  <path fill="#c68d4e" d="M147 359.1c1 0 2-.9 2-2v-26h-39v173.4h23.4V359.1zm0 0"/>
  <path fill="#ea6789" d="M442.8 253h-99a4.3 4.3 0 0 1-3.3-7.1l49.5-59c1.7-2 4.9-2 6.6 0l49.5 59c2.4 2.8.4 7.1-3.3 7.1zm0 0"/>
  <path fill="#c7416a" d="M446.1 245.9l-49.5-59c-1.7-2-4.9-2-6.6 0l-4.4 5.2 33.8 53.8c1.8 2.8.3 7.1-2.4 7.1h25.8c3.7 0 5.7-4.3 3.3-7.1zm0 0"/>
  <path fill="#eab875" d="M351.6 253H435v78h-83.4zm0 0"/>
  <path fill="#c68d4e" d="M412 253h23v78h-23zm0 0"/>
  <path fill="#fed89b" d="M413 316.3v14.5h-39.4v-14.5h-37.3a2 2 0 0 0-2 2v38.8c0 1.1.9 2 2 2h13.6v145.4h86.8V359.1h13.6c1.1 0 2-.9 2-2v-38.8c0-1.1-.9-2-2-2zm0 0"/>
  <path fill="#eab875" d="M450.3 316.3h-24.6c1 0 1.6.9 1.6 2v38.8c0 1.1-.7 2-1.6 2H415v145.4h21.7V359.1h13.6c1.1 0 2-.9 2-2v-38.8c0-1.1-.9-2-2-2zm0 0"/>
  <path fill="#ea6789" d="M116 253H17a4.3 4.3 0 0 1-3.3-7.1l49.5-59c1.7-2 5-2 6.7 0l49.4 59c2.4 2.8.4 7.1-3.3 7.1zm0 0"/>
  <path fill="#c7416a" d="M119.3 245.9l-49.4-59c-1.8-2-5-2-6.7 0l-4.4 5.2 33.9 53.8c1.8 2.8.3 7.1-2.5 7.1H116c3.7 0 5.7-4.3 3.3-7.1zm0 0"/>
  <path fill="#eab875" d="M24.9 253h83.3v78H24.9zm0 0"/>
  <path fill="#c68d4e" d="M85.3 253h22.9v78h-23zm0 0"/>
  <path fill="#fed89b" d="M86.2 316.3v14.5H46.9v-14.5H9.5a2 2 0 0 0-2 2v38.8c0 1.1 1 2 2 2h13.6v145.4H110V359.1h13.5c1.1 0 2-.9 2-2v-38.8c0-1.1-.9-2-2-2zm0 0"/>
  <path fill="#eab875" d="M123.5 316.3H99c.8 0 1.6.9 1.6 2v38.8c0 1.1-.8 2-1.6 2H88.3v145.4H110V359.1h13.5c1.1 0 2-.9 2-2v-38.8c0-1.1-.9-2-2-2zm0 0"/>
  <path fill="#a65d51" d="M230 403c26.9 0 48.8 21.8 48.8 48.8v52.7H181v-52.7c0-27 21.8-48.9 48.8-48.9zm0 0"/>
  <path d="M213 233.5h33.8c4.2 0 7.5-3.4 7.5-7.5v-19.6a24.4 24.4 0 0 0-48.8 0V226c0 4.1 3.3 7.5 7.5 7.5zm7.5-27a9.4 9.4 0 0 1 18.8 0v12h-18.8zm0 0"/>
  <path d="M450.3 308.8h-7.8v-7.6a7.5 7.5 0 0 0-15 0v7.6H413a7.5 7.5 0 0 0-7.5 7.5v7H381v-7c0-4.1-3.3-7.5-7.5-7.5h-14.5v-48.3h68.4v10.2a7.5 7.5 0 1 0 15 0v-10.2h.3c4.6 0 8.7-2.6 10.7-6.8 2-4.2 1.3-9-1.6-12.6l-49.5-59a11.8 11.8 0 0 0-18.2 0l-49.5 59c-3 3.5-3.6 8.4-1.6 12.6 2 4.2 6 6.8 10.7 6.8h.3v48.3h-7.8a9.5 9.5 0 0 0-9.5 9.5v5.3h-38.5v-22.4h8.8c5.2 0 9.5-4.3 9.5-9.6v-46.1c0-5.3-4.3-9.6-9.5-9.6h-10.8v-59.2h1.6c5 0 9.3-2.7 11.4-7.2 2.1-4.5 1.5-9.6-1.7-13.4l-58-69.2c-.7-.8-1.4-1.5-2.2-2v-31h46.2a7.5 7.5 0 0 0 6-12.2L278 27l11.5-14.8a7.5 7.5 0 0 0-6-12.1H230a7.5 7.5 0 0 0-7.5 7.5v77.4c-.8.5-1.5 1.2-2.1 2l-58 69.2c-3.2 3.8-4 8.9-1.8 13.4 2 4.5 6.4 7.2 11.4 7.2h1.7V236h-10.9a9.5 9.5 0 0 0-9.5 9.6v46.1c0 5.3 4.3 9.6 9.5 9.6h8.8v22.4H133v-5.3c0-5.2-4.3-9.5-9.6-9.5h-7.8v-48.3h.3c4.7 0 8.8-2.6 10.7-6.8 2-4.2 1.4-9-1.6-12.6l-49.5-59a11.8 11.8 0 0 0-18.1 0L8 241c-3 3.5-3.7 8.4-1.7 12.6 2 4.2 6 6.8 10.7 6.8h.4v10.2a7.5 7.5 0 0 0 15 0v-10.2h68.3v48.3H86.2a7.5 7.5 0 0 0-7.5 7.5v7H54.4v-7c0-4.1-3.4-7.5-7.5-7.5H32.4v-7.6a7.5 7.5 0 0 0-15 0v7.6H9.5a9.5 9.5 0 0 0-9.5 9.5v38.8c0 5.3 4.3 9.5 9.5 9.5h6v137.9c0 4.1 3.4 7.5 7.6 7.5h413.6c4.2 0 7.5-3.4 7.5-7.5V366.6h6c5.3 0 9.6-4.2 9.6-9.5v-38.8c0-5.2-4.3-9.5-9.5-9.5zm-57-114.2l42.7 51h-85.4zm-326.8 0l42.7 51H23.8zM262.7 31.5l5.7 7.3h-31V15h31l-5.7 7.3c-2 2.7-2 6.5 0 9.2zM230 98.7l52.9 63H279h-97.7-.2-4zm-41.3 78h82.7V236H253a7.5 7.5 0 0 0-7.5 7.5v9.5h-31.2v-9.5c0-4.1-3.3-7.5-7.5-7.5h-18.2zM179 286.2h-10.8v-35.3h31.1v9.5c0 4.2 3.4 7.5 7.5 7.5H253c4.1 0 7.5-3.3 7.5-7.5V251h31.1v35.3h-10.8a7.5 7.5 0 0 0-7.5 7.5v29.9h-86.8v-30c0-4-3.4-7.4-7.5-7.4zm147.8 52.4V357c0 5.3 4.2 9.5 9.5 9.5h6V497h-56v-45.2a56.4 56.4 0 0 0-112.7 0V497h-56.1V366.6h6c5.3 0 9.6-4.2 9.6-9.5v-18.5zm-296.2 125h7.8a7.5 7.5 0 1 0 0-15h-7.8v-23.3h7.8a7.5 7.5 0 1 0 0-15h-7.8v-23.4h7.8a7.5 7.5 0 1 0 0-15h-7.8V359c0-4.1-3.4-7.5-7.5-7.5H15v-27.8h24.4v7c0 4.1 3.3 7.5 7.5 7.5h39.3c4.1 0 7.5-3.4 7.5-7.5v-7h24.4V351.6H110a7.5 7.5 0 0 0-7.5 7.5V372h-7.8a7.5 7.5 0 0 0 0 15h7.8v23.4h-7.8a7.5 7.5 0 1 0 0 15h7.8v23.4h-7.8a7.5 7.5 0 1 0 0 15h7.8V497h-72zm158-11.8a41.4 41.4 0 0 1 33.8-40.7V497h-33.8zm48.8 45.2v-85.9a41.4 41.4 0 0 1 33.9 40.7V497zm207.4-145.4h-8a7.5 7.5 0 0 0-7.6 7.5V372h-8.6a7.5 7.5 0 1 0 0 15h8.6v23.4h-8.6a7.5 7.5 0 0 0 0 15h8.6v23.4h-8.6a7.5 7.5 0 1 0 0 15h8.6V497h-71.8v-33.3h6.8a7.5 7.5 0 1 0 0-15h-6.8v-23.4h6.8a7.5 7.5 0 1 0 0-15h-6.8v-23.4h6.8a7.5 7.5 0 1 0 0-15h-6.8V359c0-4.1-3.4-7.5-7.5-7.5h-8.1v-20.3-.2-7.3H366v7c0 4.1 3.4 7.5 7.5 7.5H413c4.1 0 7.5-3.4 7.5-7.5v-7h24.3v27.8zm0 0"/>
</svg>
