<svg xmlns="http://www.w3.org/2000/svg" viewBox="0 0 54 54"  width="30" height="30">
  <path fill="#fff" d="M27 13a14 14 0 1 0 0 28 14 14 0 0 0 0-28zm0 26a12 12 0 1 1 0-24 12 12 0 0 1 0 24z"/>
  <path fill="#fff" d="M51.2 21h-2c-.5-2-1.3-3.7-2.3-5.5l1.5-1.4a2.8 2.8 0 0 0 0-4l-4.6-4.5c-1-1-2.9-1-4 0l-1.3 1.5c-1.8-1-3.6-1.8-5.5-2.3v-2C33 1.2 31.8 0 30.2 0h-6.4A2.8 2.8 0 0 0 21 2.8v2c-2 .5-3.7 1.3-5.5 2.3l-1.4-1.5c-1-1-2.9-1-4 0l-4.5 4.6a2.8 2.8 0 0 0 0 4l1.5 1.3c-1 1.8-1.8 3.6-2.3 5.5h-2A2.8 2.8 0 0 0 0 23.8v6.4C0 31.8 1.2 33 2.8 33h2c.5 2 1.3 3.7 2.3 5.5l-1.5 1.4a2.8 2.8 0 0 0 0 4l4.6 4.5c1 1 2.9 1 4 0l1.3-1.5c1.8 1 3.6 1.8 5.5 2.3v2c0 1.6 1.2 2.8 2.8 2.8h6.4c1.6 0 2.8-1.2 2.8-2.8v-2c2-.5 3.7-1.3 5.5-2.3l1.4 1.5c1 1 2.9 1 4 0l4.5-4.6a2.8 2.8 0 0 0 0-4l-1.5-1.3c1-1.8 1.8-3.6 2.3-5.5h2c1.6 0 2.8-1.2 2.8-2.8v-6.4c0-1.6-1.2-2.8-2.8-2.8zm.8 9.2c0 .4-.4.8-.8.8h-3.6l-.2.8C47 34 46 36 44.8 38l-.4.7 2.6 2.5c.3.3.3.8 0 1.1L42.4 47c-.3.3-.8.3-1.1 0l-2.5-2.6-.7.4c-2 1.2-4 2.1-6.3 2.6l-.8.2v3.6c0 .4-.4.8-.8.8h-6.4a.8.8 0 0 1-.8-.8v-3.6l-.8-.2C20 47 18 46 16 44.8l-.7-.4-2.5 2.6c-.3.3-.8.3-1.1 0L7 42.4a.8.8 0 0 1 0-1.1l2.6-2.5-.4-.7C8 36 7 34 6.6 31.8l-.2-.8H2.8a.8.8 0 0 1-.8-.8v-6.4c0-.4.4-.8.8-.8h3.6l.2-.8C7 20 8 18 9.2 16l.4-.7L7 12.7a.8.8 0 0 1 0-1.1L11.6 7c.3-.3.8-.3 1.1 0l2.5 2.6.7-.4C18 8 20 7 22.2 6.6l.8-.2V2.8c0-.4.4-.8.8-.8h6.4c.4 0 .8.4.8.8v3.6l.8.2C34 7 36 8 38 9.2l.7.4L41.3 7c.3-.3.8-.3 1.1 0l4.6 4.6c.3.3.3.8 0 1.1l-2.6 2.5.4.7c1.2 2 2.1 4 2.6 6.3l.2.8h3.6c.4 0 .8.4.8.8v6.4z"/>
  <path fill="#fff" d="M27 17a10 10 0 1 0 0 20 10 10 0 0 0 0-20zm0 18a8 8 0 1 1 0-16 8 8 0 0 1 0 16z"/>
</svg>
