<svg xmlns="http://www.w3.org/2000/svg" viewBox="0 0 465 465" width="45" height="45">
  <path fill="#293241" d="M232.5 147.66c40.71 0 73.83-33.12 73.83-73.83S273.21 0 232.5 0s-73.83 33.12-73.83 73.83 33.12 73.83 73.83 73.83zm0-132.66a58.9 58.9 0 0 1 58.83 58.83c0 32.44-26.39 58.83-58.83 58.83s-58.83-26.39-58.83-58.83A58.9 58.9 0 0 1 232.5 15zM323.33 217.99a7.5 7.5 0 0 0 7.5-7.5v-40.32a7.5 7.5 0 0 0-7.5-7.5H141.67a7.5 7.5 0 0 0-7.5 7.5v40.32a7.5 7.5 0 0 0 7.5 7.5c9.37 0 17 7.62 17 17v20a7.5 7.5 0 1 0 15 0v-20a32.05 32.05 0 0 0-24.5-31.12v-26.2h166.66v26.2a32.06 32.06 0 0 0-24.5 31.11v157.7a32.06 32.06 0 0 0 24.5 31.11V450H149.17v-26.2a32.06 32.06 0 0 0 24.5-31.12v-107.7a7.5 7.5 0 1 0-15 0v107.7c0 9.38-7.63 17-17 17a7.5 7.5 0 0 0-7.5 7.5v40.32a7.5 7.5 0 0 0 7.5 7.5h181.66a7.5 7.5 0 0 0 7.5-7.5v-40.32a7.5 7.5 0 0 0-7.5-7.5c-9.37 0-17-7.62-17-17v-157.7c0-9.37 7.63-17 17-17z"/>
</svg>
