<svg xmlns="http://www.w3.org/2000/svg" width="650.9" height="287.6">
  <path fill="#ffc717" d="M213.7 42.8h157v117.55h-157z"/>
  <path fill="#ffaa14" d="M284.9 42.8h14.6v117.55h-14.6z"/>
  <path fill="#fef7f4" d="M292.2 43.9v113.4s6.2 1.5 6.2-1.5h69.3V42.4l-2.9-2.9h-67.2s-5.4.7-5.4 4.4z"/>
  <path fill="#f5f1e9" d="M364.7 39.6v113.3s-70.5-6-72.5 1.9V44.3c0-4.5 4.1-10.5 72.5-4.7z"/>
  <path fill="#fef7f4" d="M292.2 43.9v113.4s-6.2 1.5-6.2-1.5h-69.3V42.4l2.9-2.9h67.2s5.4.7 5.4 4.4z"/>
  <path fill="#f5f1e9" d="M219.7 39.6v113.3s70.5-6 72.5 1.9V44.3c0-4.5-4.1-10.5-72.5-4.7z"/>
  <path fill="#eeeae2" d="M281.3 38v113.2c6.2.6 10.5 1.7 10.9 3.5V44.3c0-2.3-1.1-4.9-10.9-6.3zM303.3 38v113.2c-6.2.6-10.5 1.7-10.9 3.5V44.3c-.1-2.3 1-4.9 10.9-6.3z"/>
  <g fill="#bab4a7">
    <path d="M227.6 48.4h56.7v1.76h-56.7zM227.6 53.3h56.7v1.76h-56.7zM227.6 58.2h56.7v1.76h-56.7zM227.6 63.1h56.7v1.76h-56.7zM227.6 68.1h56.7v1.76h-56.7zM227.6 73h56.7v1.76h-56.7zM227.6 77.9h56.7v1.76h-56.7zM227.6 82.8h56.7v1.76h-56.7zM227.6 87.7h56.7v1.76h-56.7zM227.6 92.6h56.7v1.76h-56.7zM227.6 97.5h56.7v1.76h-56.7zM227.6 102.4h56.7v1.76h-56.7zM227.6 107.3h56.7v1.76h-56.7zM227.6 112.3h56.7v1.76h-56.7zM227.6 117.2h56.7v1.76h-56.7zM227.6 122.1h56.7v1.76h-56.7zM227.6 127h56.7v1.76h-56.7zM227.6 131.9h56.7v1.76h-56.7zM227.6 136.8h56.7v1.76h-56.7zM227.6 141.7h56.7v1.76h-56.7z"/>
  </g>
  <g fill="#bab4a7">
    <path d="M300.1 48.4h56.7v1.76h-56.7zM300.1 53.3h56.7v1.76h-56.7zM300.1 58.2h56.7v1.76h-56.7zM300.1 63.1h56.7v1.76h-56.7zM300.1 68.1h56.7v1.76h-56.7zM300.1 73h56.7v1.76h-56.7zM300.1 77.9h56.7v1.76h-56.7zM300.1 82.8h56.7v1.76h-56.7zM300.1 87.7h56.7v1.76h-56.7zM300.1 92.6h56.7v1.76h-56.7zM300.1 97.5h56.7v1.76h-56.7zM300.1 102.4h56.7v1.76h-56.7zM300.1 107.3h56.7v1.76h-56.7zM300.1 112.3h56.7v1.76h-56.7zM300.1 117.2h56.7v1.76h-56.7zM300.1 122.1h56.7v1.76h-56.7zM300.1 127h56.7v1.76h-56.7zM300.1 131.9h56.7v1.76h-56.7zM300.1 136.8h56.7v1.76h-56.7zM300.1 141.7h56.7v1.76h-56.7z"/>
  </g>
  <path fill="#b1d8d4" d="M344.5 21.3c-2.7 0-8.2 11.4-8.2 11.4v85.6h16.5V32.7s-5.6-11.4-8.3-11.4zm0 10.9a2.9 2.9 0 1 1 2.9-2.9 2.9 2.9 0 0 1-2.9 2.9z"/>
  <path fill="#00878e" d="M344.5 21.3h-.2v5h.2a2.9 2.9 0 0 1 0 5.8h-.2v86.2h8.4V32.7s-5.5-11.4-8.2-11.4z"/>
  <path fill="#c59b6d" d="M353.3 62.4h-.5v-1.6h.2c.1 0 2.6.6 4.5-4.1 4.1-10.1-11.2-24.8-11.4-25a.8.8 0 0 1 1.1-1.1c.7.6 16.3 15.7 11.8 26.7-1.9 4.5-4.4 5.1-5.7 5.1z"/>
  <path fill="#f05a24" d="M30.5 5.4h37.9v154.81H30.5z"/>
  <path fill="#c0272d" d="M49.4 5.4h18.9v154.81H49.4z"/>
  <path fill="#faaf3b" d="M30.5 66.8h37.9v47.82H30.5z"/>
  <path fill="#f6921e" d="M49.4 66.8h18.9v47.82H49.4z"/>
  <path fill="#6e2c3d" d="M30.5 125.5h37.9v8.06H30.5z"/>
  <path fill="#461932" d="M49.4 125.5h18.9v8.06H49.4z"/>
  <g>
    <ellipse cx="49.4" cy="33" fill="#6e2c3d" rx="12" ry="11.5"/>
    <path fill="#461932" d="M49.7 21.5v23a11.5 11.5 0 1 0 0-23z"/>
  </g>
  <path fill="#f05a24" d="M138.1 34H176v126.25h-37.9z"/>
  <path fill="#c0272d" d="M157 34h18.9v126.25H157z"/>
  <g>
    <path fill="#faaf3b" d="M138.1 54.8H176v80.78h-37.9z"/>
    <path fill="#f6921e" d="M157 54.8h18.9v80.78H157z"/>
  </g>
  <g>
    <path fill="#6e2c3d" d="M138.1 133.8H176v6.57h-37.9z"/>
    <path fill="#461932" d="M157 133.8h18.9v6.57H157z"/>
    <path fill="#6e2c3d" d="M138.1 50.1H176v6.57h-37.9z"/>
    <path fill="#461932" d="M157 50.1h18.9v6.57H157z"/>
  </g>
  <g>
    <ellipse cx="157" cy="72.5" fill="#6e2c3d" rx="12" ry="9.4"/>
    <path fill="#461932" d="M157.3 63.2V82c6.5-.1 11.7-4.3 11.7-9.4s-5.2-9.3-11.7-9.4z"/>
    <g>
      <ellipse cx="157" cy="117.9" fill="#6e2c3d" rx="12" ry="9.4"/>
      <path fill="#461932" d="M157.3 108.5v18.8c6.5-.1 11.7-4.3 11.7-9.4s-5.2-9.2-11.7-9.4z"/>
    </g>
  </g>
  <g>
    <path fill="#f1f1f1" d="M13.7 160.3L0 158.9l16.8-154 13.7 1.4-16.8 154z"/>
    <path fill="#cbcbcb" d="M13.7 160.3l-6.9-.7 16.8-154 6.9.7-16.8 154z"/>
    <path fill="#6e2c3d" d="M15.2 114.5l-6.8-.7 7-64.7 6.9.7-7.1 64.7z"/>
    <path fill="#461932" d="M15.2 114.5l-3.4-.3 7.1-64.8 3.4.4-7.1 64.7z"/>
    <path fill="#f05a24" d="M17.5 125.7l-13.7-1.4-.9 8.1 13.7 1.3.9-8z"/>
    <path fill="#c0272d" d="M17.5 125.7l-6.9-.7-.9 8.1 6.9.6.9-8z"/>
    <g>
      <path fill="#f05a24" d="M25 33.5c-.7 6.3-3.2 11.3-5.6 11s-3.8-5.5-3.1-11.9 3.2-11.3 5.6-11 3.8 5.6 3.1 11.9z"/>
      <path fill="#c0272d" d="M22 21.6l-2.5 22.9c2.4.1 4.8-4.8 5.5-11s-.7-11.5-3-11.9z"/>
    </g>
  </g>
  <g>
    <path fill="#f1f1f1" d="M175.92 160.28l.27-154.8 13.77.03-.27 154.8z"/>
    <path fill="#cbcbcb" d="M182.83 160.19l.27-154.8h6.88l-.27 154.8z"/>
    <path fill="#6e2c3d" d="M179.4 114.59l.11-65.1h6.88l-.11 65.1z"/>
    <path fill="#461932" d="M182.9 114.59l.12-65.1h3.44l-.12 65.1z"/>
    <path fill="#62c4bc" d="M175.95 133.56l.01-8.1 13.77.03-.01 8.1z"/>
    <path fill="#66a1a0" d="M182.85 133.57l.02-8.1 6.88.01-.02 8.1z"/>
    <g>
      <ellipse cx="261.3" cy="60.4" fill="#62c4bc" rx="11.5" ry="4.4" transform="rotate(-89.9 208.4 85.94)"/>
      <path fill="#66a1a0" d="M183.2 21.5v23c2.4-.2 4.3-5.2 4.3-11.5s-2-11.3-4.3-11.5z"/>
    </g>
  </g>
  <g>
    <path fill="#f1f1f1" d="M189.74 160.18l.28-154.8 13.77.03-.28 154.8z"/>
    <path fill="#cbcbcb" d="M196.65 160.29l.27-154.8h6.88l-.27 154.8z"/>
    <path fill="#6e2c3d" d="M193.22 114.59l.12-65.1h6.88l-.12 65.1z"/>
    <path fill="#461932" d="M196.83 114.69l.11-65.1h3.44l-.11 65.1z"/>
    <path fill="#a362c4" d="M189.77 133.56l.02-8.1 13.77.03-.02 8.1z"/>
    <path fill="#9166a1" d="M196.68 133.57l.01-8.1 6.88.01-.01 8.1z"/>
    <g>
      <ellipse cx="275.2" cy="60.4" fill="#a362c4" rx="11.5" ry="4.4" transform="rotate(-89.9 222.27 85.98)"/>
      <path fill="#9166a1" d="M197 21.5v23c2.4-.2 4.3-5.2 4.3-11.5s-1.9-11.3-4.3-11.5z"/>
    </g>
  </g>
  <g>
    <path fill="#8bc53f" d="M71.3 21.5h28.4v138.77H71.3z"/>
    <path fill="#009145" d="M85.5 21.5h14.2v138.77H85.5z"/>
    <path fill="#faaf3b" d="M71.3 129.1h28.4v7.22H71.3z"/>
    <path fill="#f6921e" d="M85.5 129.1h14.2v7.22H85.5z"/>
    <path fill="#faaf3b" d="M71.3 45.4h28.4v7.22H71.3z"/>
    <path fill="#f6921e" d="M85.5 45.4h14.2v7.22H85.5z"/>
    <g>
      <path fill="#faaf3b" d="M71.3 80.4h28.4v20.86H71.3z"/>
      <path fill="#f6921e" d="M85.5 80.4h14.2v20.86H85.5z"/>
    </g>
    <g>
      <ellipse cx="85.5" cy="90.7" fill="#6e2c3d" rx="12" ry="32.3"/>
      <path fill="#461932" d="M85.8 58.4V123c6.5-.5 11.7-14.7 11.7-32.3s-5.2-31.8-11.7-32.3z"/>
    </g>
  </g>
  <g>
    <path fill="#faaf3b" d="M138.1 157.7l-26.4 2.6-12-112.5 26.3-2.6 12.1 112.5z"/>
    <path fill="#f6921e" d="M138.1 157.7l-13.2 1.3-12-112.5 13.1-1.3 12.1 112.5z"/>
    <path fill="#6e2c3d" d="M135.4 132.5l-26.4 2.6.7 5.8 26.3-2.6-.6-5.8z"/>
    <path fill="#461932" d="M135.4 132.5l-13.2 1.3.6 5.8 13.2-1.3-.6-5.8z"/>
    <path fill="#6e2c3d" d="M136.1 139.7l-26.3 2.6.3 2.4 26.3-2.5-.3-2.5z"/>
    <path fill="#461932" d="M136.1 139.7L123 141l.2 2.4 13.2-1.2-.3-2.5z"/>
    <path fill="#6e2c3d" d="M128.1 64.6l-26.3 2.6.6 5.8 26.3-2.6-.6-5.8z"/>
    <path fill="#461932" d="M128.1 64.6L115 65.9l.6 5.8 13.1-1.3-.6-5.8z"/>
  </g>
  <g>
    <path fill="#8bc53f" d="M382.2 40.1h118.3v10.52H382.2z"/>
    <path fill="#009145" d="M382.2 45.3h118.3v5.26H382.2z"/>
    <path fill="#6e2c3d" d="M415.8 42.7h49.7v5.26h-49.7z"/>
    <path fill="#461932" d="M415.8 45.3h49.7v2.63h-49.7z"/>
    <path fill="#6e2c3d" d="M473.9 40.1h6.2v10.52h-6.2z"/>
    <path fill="#461932" d="M473.9 45.3h6.2v5.26h-6.2z"/>
    <ellipse cx="403.2" cy="45.4" fill="#6e2c3d" rx="8.8" ry="3.3"/>
    <path fill="#461932" d="M394.4 45.5H412c-.1 1.8-4 3.2-8.8 3.2s-8.7-1.4-8.8-3.2z"/>
    <g>
      <path fill="#8bc53f" d="M381 106.4h138.8v28.39H381z"/>
      <path fill="#009145" d="M381 120.6h138.8v14.19H381z"/>
      <path fill="#faaf3b" d="M488.7 106.4h7.2v28.39h-7.2z"/>
      <path fill="#f6921e" d="M488.7 120.6h7.2v14.19h-7.2z"/>
      <path fill="#faaf3b" d="M404.9 106.4h7.2v28.39h-7.2z"/>
      <path fill="#f6921e" d="M404.9 120.6h7.2v14.19h-7.2z"/>
      <g>
        <path fill="#faaf3b" d="M440 106.4h20.9v28.39H440z"/>
        <path fill="#f6921e" d="M440 120.6h20.9v14.19H440z"/>
      </g>
      <g>
        <ellipse cx="450.3" cy="120.6" fill="#6e2c3d" rx="32.3" ry="12"/>
        <path fill="#461932" d="M417.9 121h64.6c-.5 6.5-14.7 11.7-32.3 11.7s-31.8-5.3-32.3-11.7z"/>
      </g>
    </g>
    <g>
      <path fill="#008993" d="M510.6 134.8H387.2s-9.5-.4-9.5 13.1 9.3 12.3 9.3 12.3h123.6a15 15 0 0 1 0-25.4z"/>
      <path fill="#00b1b9" d="M519 134.8h-50.3s-9.5-.4-9.5 13.1 9.3 12.3 9.3 12.3H519a15 15 0 0 1 0-25.4z"/>
      <path fill="#f1f1f1" d="M515.6 137.6H471s-8.4-.3-8.4 10.3 8.2 9.7 8.2 9.7h44.7s-3.6-3-3.6-10 3.7-10 3.7-10z"/>
      <path fill="#faaf3b" d="M404.8 160.3s-9.3 1.1-9.3-12.3 9.5-13.1 9.5-13.1h-7.8s-9.5-.4-9.5 13.1 9.3 12.3 9.3 12.3zM470.5 147.5v15.6l7.4-4.6 5.9 4.6v-15.6h-13.3z"/>
    </g>
    <g>
      <path fill="#f6921e" d="M385.8 50.6h115.9s8.9-.4 8.9 12.3-8.7 11.6-8.7 11.6h-116a14.1 14.1 0 0 0 0-23.9z"/>
      <path fill="#faaf3b" d="M378 50.6h47.3s8.9-.4 8.9 12.3-8.7 11.6-8.7 11.6H378a14.1 14.1 0 0 0 0-23.9z"/>
      <path fill="#f1f1f1" d="M381.2 53.2H423s7.9-.3 7.9 9.6-7.7 9.1-7.7 9.1h-42s3.3-2.8 3.3-9.3-3.3-9.4-3.3-9.4z"/>
      <path fill="#faaf3b" d="M485.2 74.4s8.7 1.1 8.7-11.6-8.9-12.2-8.9-12.2h7.3s8.9-.4 8.9 12.3-8.7 11.6-8.7 11.6z"/>
      <path fill="#faaf3b" d="M471.7 74.4s8.7 1.1 8.7-11.6-8.9-12.2-8.9-12.2h7.3s8.9-.4 8.9 12.3-8.7 11.6-8.7 11.6z"/>
    </g>
    <g>
      <path fill="#ffa619" d="M389.5 106.4h111s11.9.5 11.9-16.5-11.7-15.6-11.7-15.6H389.5a18.9 18.9 0 0 1 0 32.1z"/>
      <path fill="#f1f1f1" d="M392.2 104.4h107.9s10.6-1.1 10.6-14.4-9.3-13.3-9.3-13.3H392.6a18.9 18.9 0 0 1 5.8 13.1c0 8.8-6.2 14.6-6.2 14.6z"/>
      <path fill="#f05a24" d="M488.7 112l6.5-4.1 6.5 4.1V90.3h-13V112z"/>
      <path fill="#c0272d" d="M488.7 112l6.5-4.1V90.3h-6.5V112z"/>
    </g>
    <g>
      <path fill="#8bc53f" d="M492.2 40.1h-78.9s-8.5.3-8.5-11.7 8.3-11.1 8.3-11.1h79a13.4 13.4 0 0 0 0 22.8z"/>
      <path fill="#f1f1f1" d="M490.3 38.6h-76.7s-7.5-.8-7.5-10.2 6.6-9.4 6.6-9.4h77.2a13.4 13.4 0 0 0-4.1 9.3 15.4 15.4 0 0 0 4.5 10.3z"/>
    </g>
    <g>
      <path fill="#c0272d" d="M391.9 17.3H493s6.4.3 6.4-8.9-6.3-8.4-6.3-8.4H391.9a10.2 10.2 0 0 1 0 17.3z"/>
      <path fill="#f1f1f1" d="M393.4 16.2h99.5s5.7-.6 5.7-7.8-5-7.2-5-7.2h-100a10.2 10.2 0 0 1 3.1 7.1 11.7 11.7 0 0 1-3.3 7.9z"/>
    </g>
  </g>
  <g>
    <path fill="#f61e4d" d="M531.9 33.9h87.6v126.41h-87.6z"/>
    <path fill="#fa3b3f" d="M531.9 33.9h43.8v126.41h-43.8z"/>
    <path fill="#50b900" d="M529.6 33.9h2.3v126.41h-2.3z"/>
    <path fill="#3c9300" d="M523.8 33.9h5.8v126.41h-5.8z"/>
    <path fill="#50b900" d="M523.8 75h5.8v44.22h-5.8zM523.8 48h5.8v5.9h-5.8zM523.8 135.9h5.8v5.9h-5.8z"/>
    <circle cx="575.7" cy="97.1" r="27.1" fill="#221946"/>
    <path fill="#442c6e" d="M548.6 97.1A27.1 27.1 0 0 1 575.7 70v54.2a27.1 27.1 0 0 1-27.1-27.1zM531.9 136.3h87.6v8.34h-87.6z"/>
    <path fill="#221946" d="M575.7 136.3h43.8v8.34h-43.8z"/>
    <path fill="#442c6e" d="M531.9 51h87.6v8.34h-87.6z"/>
    <path fill="#221946" d="M575.7 51h43.8v8.34h-43.8z"/>
    <g>
      <path fill="#1ef6dd" d="M541.4 33.9H629v126.41h-87.6z"/>
      <path fill="#3be9fa" d="M541.4 33.9h43.8v126.41h-43.8z"/>
      <path fill="#b90300" d="M539.1 33.9h2.3v126.41h-2.3z"/>
      <path fill="#930400" d="M533.3 33.9h5.8v126.41h-5.8z"/>
      <path fill="#b90300" d="M533.3 75h5.8v44.22h-5.8zM533.3 48h5.8v5.9h-5.8zM533.3 135.9h5.8v5.9h-5.8z"/>
      <circle cx="585.2" cy="97.1" r="27.1" fill="#404619"/>
      <path fill="#546e2c" d="M558.1 97.1A27.1 27.1 0 0 1 585.2 70v54.2a27.1 27.1 0 0 1-27.1-27.1zM541.4 136.3H629v8.34h-87.6z"/>
      <path fill="#404619" d="M585.2 136.3H629v8.34h-43.8z"/>
      <path fill="#546e2c" d="M541.4 51H629v8.34h-87.6z"/>
      <path fill="#404619" d="M585.2 51H629v8.34h-43.8z"/>
    </g>
    <g>
      <path fill="#f6921e" d="M550.9 33.9h87.6v126.41h-87.6z"/>
      <path fill="#faaf3b" d="M550.9 33.9h43.8v126.41h-43.8z"/>
      <path fill="#00b1b9" d="M548.6 33.9h2.3v126.41h-2.3z"/>
      <path fill="#008993" d="M542.8 33.9h5.8v126.41h-5.8z"/>
      <path fill="#00b1b9" d="M542.8 75h5.8v44.22h-5.8zM542.8 48h5.8v5.9h-5.8zM542.8 135.9h5.8v5.9h-5.8z"/>
      <circle cx="594.7" cy="97.1" r="27.1" fill="#461932"/>
      <path fill="#6e2c3d" d="M567.6 97.1A27.1 27.1 0 0 1 594.7 70v54.2a27.1 27.1 0 0 1-27.1-27.1zM550.9 136.3h87.6v8.34h-87.6z"/>
      <path fill="#461932" d="M594.7 136.3h43.8v8.34h-43.8z"/>
      <path fill="#6e2c3d" d="M550.9 51h87.6v8.34h-87.6z"/>
      <path fill="#461932" d="M594.7 51h43.8v8.34h-43.8z"/>
    </g>
  </g>
  <text fill="#293241" font-family="Clarendon, Clarendon" font-size="86" letter-spacing=".24em" transform="translate(8.4 204.7)">
    readMore
  </text>
  <text fill="#ee6c4d" font-family="BradleyHandITC, Bradley Hand ITC" font-size="78" letter-spacing=".24em" transform="translate(68.3 256.6)">
    book store
  </text>
</svg>
