<svg xmlns="http://www.w3.org/2000/svg" viewBox="0 1 511 512" width="65" height="65">
  <path fill="#7c3f2c" d="M282.8 34.07a26.46 26.46 0 0 1-26.5 26.5 26.5 26.5 0 1 1 26.5-26.5zm0 0"/>
  <path fill="#954c35" d="M282.8 34.07c0 9.02-4.5 16.97-11.36 21.75-6.86-4.78-11.36-12.73-11.36-21.75s4.5-16.97 11.36-21.75a26.48 26.48 0 0 1 11.36 21.75zm0 0M409.03 503.93H103.59A95.01 95.01 0 0 1 8.57 408.9V227.26a95.01 95.01 0 0 1 95.02-95.02h305.44a95.01 95.01 0 0 1 95 95.02V408.9a95.01 95.01 0 0 1-95 95.02zm0 0"/>
  <path fill="#EE6C4D" d="M471.66 230.84v174.49a63.72 63.72 0 0 1-63.72 63.71H104.67a63.72 63.72 0 0 1-63.72-63.71v-174.5a63.72 63.72 0 0 1 63.72-63.7h303.27a63.72 63.72 0 0 1 63.72 63.7zm0 0"/>
  <path fill="#EE6C4D" d="M471.66 230.84v174.49a63.72 63.72 0 0 1-63.72 63.71h-273a63.72 63.72 0 0 1-63.71-63.71v-174.5a63.72 63.72 0 0 1 63.71-63.7h273a63.72 63.72 0 0 1 63.72 63.7zm0 0"/>
  <path d="M409.03 124.17h-11.77l-110-75.9C297.63 25.76 281.08 0 256.3 0 231.54 0 215 25.76 225.34 48.26l-110 75.91H103.6C46.74 124.17.5 170.41.5 227.25v181.66C.5 465.75 46.74 512 103.59 512h305.44c56.84 0 103.08-46.25 103.08-103.09V227.26c0-56.85-46.24-103.09-103.08-103.09zM256.3 15.14c10.45 0 18.94 8.49 18.94 18.93S266.74 53 256.3 53a18.96 18.96 0 0 1-18.93-18.93c0-10.44 8.5-18.93 18.93-18.93zM495.96 408.9c0 47.95-39 86.95-86.93 86.95H103.59c-47.94 0-86.95-39-86.95-86.95V227.26c0-47.94 39-86.94 86.95-86.94h72.02a8.07 8.07 0 1 0 0-16.15H142l92.57-63.88a33.99 33.99 0 0 0 43.47 0l92.57 63.88H205.88a8.07 8.07 0 0 0 0 16.15h203.15c47.93 0 86.93 39 86.93 86.94zm0 0"/>
  <path d="M465.14 201.59a8.07 8.07 0 0 0-4.85 10.33c4.53 12.54 3.3 3.58 3.3 193.41a55.7 55.7 0 0 1-55.64 55.64c-329.75 0-310.55 1.76-325.07-4.42a8.08 8.08 0 0 0-6.33 14.85 71.33 71.33 0 0 0 28.11 5.72h303.29c39.58 0 71.78-32.2 71.78-71.79 0-189.52 1.52-182.9-4.25-198.9a8.07 8.07 0 0 0-10.34-4.84zm0 0M104.66 175.2h303.29c14.1 0 27.56 5.29 37.88 14.89a8.07 8.07 0 0 0 11-11.82 71.55 71.55 0 0 0-48.88-19.22H104.66c-39.58 0-71.78 32.2-71.78 71.79v174.5a71.9 71.9 0 0 0 16.58 45.89 8.08 8.08 0 0 0 12.41-10.33 55.71 55.71 0 0 1-12.85-35.57V230.84a55.7 55.7 0 0 1 55.64-55.64zm0 0"/>
  <path d="M112.57 357.13c-19.15 0-23.29-13.64-29.5-13.64-4.32 0-7.94 5.7-7.94 9.84 0 22.15 77.48 37.6 77.48-16.4 0-45.9-56.08-34.33-56.08-59.87 0-10.86 8.97-15.7 21.56-15.7 14.67 0 19.16 6.56 23.82 6.56 5.17 0 7.59-6.38 7.59-9.84 0-9.49-20.19-12.42-31.4-12.42-18.47 0-39.86 7.59-39.86 33.13 0 41.4 56.08 29.5 56.08 60.05 0 12.42-9.32 18.29-21.75 18.29zm0 0M168.65 284.66v50.2c0 27.96 16.74 38.48 38.65 38.48 21.74 0 38.82-10.52 38.82-38.47v-50.21c0-27.96-17.08-38.48-38.82-38.48-21.9 0-38.65 10.52-38.65 38.48zm59.19 0v50.2c0 15.2-7.77 22.26-20.54 22.26-12.94 0-20.36-7.07-20.36-22.25v-50.21c0-15.19 7.42-22.26 20.36-22.26 12.77 0 20.54 7.07 20.54 22.26zm0 0M267.52 252.04v114.23c0 3.97 4.14 6.04 8.11 6.04h55.05c7.28 0 7.4-16.22 0-16.22H285.8V252.04c0-7.91-18.29-7.85-18.29 0zm0 0M357.94 246.18c-4.83 0-8.11 2.76-8.11 5.86v114.4c0 3.1 3.28 5.87 8.1 5.87h30.55c21.91 0 38.82-10.53 38.82-38.48v-49.17c0-27.96-16.9-38.48-38.82-38.48zM409 284.66v49.17c0 15.19-7.6 22.26-20.53 22.26h-20.36v-93.7h20.36c12.94 0 20.53 7.08 20.53 22.27zm0 0"/>
</svg>
