<svg xmlns="http://www.w3.org/2000/svg" viewBox="0 0 511 512" width="75" height="75">
  <path fill="#f08e76" d="M448 391c-32-2-59 24-57 56 3 52-60 77-94 39a54 54 0 0 0-81 0 54 54 0 0 1-94-39c2-31-25-58-57-56-51 2-77-61-39-95 24-21 24-59 0-80a54 54 0 0 1 39-95c32 2 59-24 57-56a54 54 0 0 1 94-39c22 23 59 23 81 0 11-13 25-18 39-18 29 0 57 22 55 57-2 31 25 58 57 56 51-2 77 61 39 95a54 54 0 0 0 0 80c38 34 12 97-39 95zm0 0"/>
  <path fill="#EE6C4D" d="M448 391c-32-2-59 24-57 56 3 52-60 77-94 39a54 54 0 0 0-81 0c-6 7-12 12-19 15-20-8-36-28-35-54 2-31-24-58-56-56-52 2-77-61-40-95 24-21 24-59 0-80a54 54 0 0 1 39-94c32 1 59-25 57-57-1-19 8-41 18-57 13 0 26 6 36 18a54 54 0 0 0 81 0c11-13 25-18 39-18 29 0 57 22 55 57-2 31 25 58 57 56 51-2 77 61 39 95a54 54 0 0 0 0 80c38 34 12 97-39 95zm0 0"/>
  <path fill="#EE6C4D" d="M430 256a174 174 0 1 1-348 0 174 174 0 0 1 348 0zm0 0"/>
  <path fill="#f08e76" d="M430 256c0 87-63 159-146 172a174 174 0 0 1 0-344c83 13 146 85 146 172zm0 0"/>
  <path fill="#946155" d="M124 45c4 2 8 0 10-4 14-28 53-36 77-10a62 62 0 0 0 91 0c29-33 84-11 81 33-1 37 29 67 65 65a46 46 0 0 1 34 81 62 62 0 0 0 0 92c5 5 10 11 12 17a8 8 0 0 0 14-6c-3-8-9-16-16-22a47 47 0 0 1 0-70 62 62 0 0 0-45-107c-27 1-50-21-48-49a62 62 0 0 0-108-45 47 47 0 0 1-69 0 62 62 0 0 0-102 15c-1 3 0 8 4 10zm0 0M505 339c-4-1-8 1-8 6-4 21-23 39-49 38-36-2-66 28-65 65a46 46 0 0 1-81 33 62 62 0 0 0-91 0 47 47 0 0 1-81-33c1-37-29-67-65-65a46 46 0 0 1-34-81c27-25 27-67 0-92-10-9-15-21-15-34 0-25 20-48 49-47 35 2 65-26 65-62a8 8 0 0 0-15 0c0 26-21 47-47 47h-6c-17 0-33 7-45 19a64 64 0 0 0-17 43c0 17 8 33 21 45 20 19 21 51 0 70a61 61 0 0 0-21 45c0 16 7 31 17 43 13 13 30 20 49 19 27-1 50 21 48 49-1 19 7 36 20 48 11 11 27 17 43 17 17 0 33-7 45-20a47 47 0 0 1 69 0 62 62 0 0 0 108-45c-2-27 20-49 46-49h6c30 0 55-21 60-51 1-4-2-8-6-8zm0 0"/>
  <path fill="#946155" d="M184 414c-2 4 0 8 4 10a182 182 0 1 0-28-14 8 8 0 0 0 8-13 167 167 0 1 1 89 26c-22-1-44-5-64-13-3-2-8 0-9 4zm0 0"/>
  <path fill="#ffffff" d="M146 295c-15 0-19-12-24-12-3 0-6 5-6 8 0 7 12 17 31 17 18 0 32-10 32-30 0-37-46-28-46-48 0-9 7-13 18-13s15 5 19 5 6-5 6-8c0-8-16-10-25-10-15 0-33 6-33 27 0 34 46 24 46 49 0 10-8 15-18 15zm0 0M222 308c17 0 31-9 31-32v-40c0-23-14-32-31-32-18 0-32 9-32 32v40c0 23 14 32 32 32zm-17-72c0-13 6-18 17-18 10 0 16 5 16 18v40c0 13-6 19-16 19-11 0-17-6-17-19zm0 0M276 204c-3 0-7 2-7 5v93c0 3 3 5 7 5h44c3 0 5-4 5-7s-2-6-5-6h-36v-85c0-3-4-5-8-5zm0 0M366 307c18 0 31-9 31-31v-40c0-23-13-32-31-32h-25c-4 0-7 3-7 5v93c0 3 3 5 7 5zm-17-89h17c10 0 16 5 16 18v40c0 12-6 18-16 18h-17zm0 0"/>
</svg>
